<?xml version="1.0" encoding="UTF-8"?>
<svg xmlns="http://www.w3.org/2000/svg" xmlns:xlink="http://www.w3.org/1999/xlink" width="2836" height="2835" viewBox="0 0 2836 2835">
<path fill-rule="evenodd" fill="rgb(90.039062%, 90.039062%, 90.039062%)" fill-opacity="1" d="M 1 0.351562 L 2835.640625 0.351562 L 2835.640625 2835 L 1 2835 L 1 0.351562 "/>
<path fill-rule="evenodd" fill="rgb(99.021912%, 99.021912%, 99.021912%)" fill-opacity="1" d="M 1379.96875 1955.425781 L 1371.761719 1926.859375 C 1380.960938 1920.058594 1434.839844 1896.097656 1444.941406 1895.738281 C 1456.96875 1895.308594 1509.210938 1918.550781 1519.230469 1926.519531 L 1512.601562 1955.25 C 1491.75 1952.171875 1462.738281 1935.195312 1447.789062 1934.363281 C 1433.699219 1933.574219 1399.160156 1951.761719 1379.96875 1955.425781 Z M 1377.398438 1880.71875 L 1371.441406 1850.253906 C 1380.691406 1844.316406 1437.210938 1819.578125 1445.019531 1819.390625 C 1456.160156 1819.140625 1504.359375 1843.132812 1519.921875 1847.746094 L 1516.691406 1877.398438 C 1497.261719 1886.015625 1469.429688 1860.976562 1447.941406 1859.769531 C 1433.328125 1858.945312 1397.230469 1877.570312 1377.398438 1880.71875 Z M 1246.441406 2344.105469 C 1269.101562 2368.339844 1272.011719 2386.988281 1320.269531 2371.910156 C 1323.511719 2346.757812 1317.679688 2280.289062 1316.621094 2250.164062 C 1315.269531 2211.882812 1316.421875 2167.21875 1320.53125 2129.257812 C 1326.148438 2077.222656 1335.109375 2073.945312 1369.191406 2051.582031 C 1394.320312 2035.09375 1419.058594 2017.40625 1444.660156 2003.152344 C 1461.699219 2008.679688 1506.738281 2040.851562 1523.488281 2051.738281 C 1559.390625 2075.0625 1565.878906 2076.722656 1571.460938 2127.21875 C 1580.53125 2209.253906 1571.980469 2285.375 1570.679688 2366.253906 C 1576.128906 2376.082031 1583.5 2376.957031 1596.050781 2376.96875 C 1622.078125 2376.996094 1631.308594 2363.984375 1650.46875 2336.421875 C 1681.660156 2291.542969 1714.550781 2221.90625 1737.269531 2169.863281 C 1742.960938 2156.816406 1767.800781 2090.300781 1776.570312 2081.117188 C 1777.570312 2026.960938 1807.179688 1871.84375 1805.980469 1814.761719 C 1760.289062 1811.890625 1621.808594 1827.519531 1596.800781 1823.359375 C 1578.941406 1820.390625 1461.28125 1757.890625 1444.929688 1758.429688 C 1428.371094 1758.988281 1311.640625 1821.421875 1292.910156 1823.640625 C 1269.570312 1826.398438 1131.320312 1813.640625 1086.210938 1814.398438 C 1085.390625 1854.414062 1097.390625 1931.574219 1102.570312 1972.855469 C 1110.761719 2038.070312 1108.96875 2058.183594 1132.050781 2115.96875 C 1152.199219 2166.429688 1187.109375 2245.722656 1214.949219 2293.453125 C 1225.199219 2311.023438 1238.988281 2329.699219 1246.441406 2344.105469 "/>
<path fill-rule="evenodd" fill="rgb(5.999756%, 5.999756%, 5.999756%)" fill-opacity="1" d="M 1328.859375 2303.804688 C 1364.289062 2340.945312 1382.988281 2338.054688 1444.660156 2338.195312 C 1525.679688 2338.382812 1520.980469 2339.609375 1563.578125 2303.660156 C 1564.519531 2344.515625 1559.199219 2400.988281 1554.480469 2440.515625 C 1548.121094 2493.839844 1537.628906 2484.464844 1448.171875 2484.4375 C 1425.121094 2484.429688 1397.640625 2485.835938 1375.121094 2484.269531 C 1343.460938 2482.0625 1341.910156 2474.492188 1338.261719 2444.9375 C 1333.449219 2406.066406 1326.449219 2341.613281 1328.859375 2303.804688 Z M 910.121094 2344.539062 L 910.617188 1886.160156 L 1044.621094 1854.636719 C 1047.96875 1934.847656 1046.148438 2015.878906 1047.550781 2095.386719 C 1048.210938 2132.863281 1054.789062 2310.4375 1048.609375 2332.308594 Z M 1845.359375 2007.429688 L 1847.359375 1857.25 C 1862.25 1856 1928.851562 1873.535156 1952.949219 1878.917969 C 1987.949219 1886.738281 1981.378906 1878.980469 1981.488281 1951.144531 L 1983.308594 2343.78125 L 1841.328125 2332.480469 Z M 1060.328125 2314.449219 L 1057.140625 2192.839844 C 1066.148438 2197.078125 1063.589844 2185.132812 1068.039062 2222.066406 C 1071.828125 2253.515625 1085.589844 2313.308594 1060.328125 2314.449219 Z M 1326.730469 2253.683594 C 1323.128906 2230.808594 1327.71875 2160.382812 1329.921875 2134.96875 C 1334.03125 2087.4375 1337.910156 2072.074219 1388.449219 2067.628906 C 1409.851562 2065.742188 1425.460938 2069.460938 1444.851562 2069.636719 C 1516.53125 2070.273438 1554.378906 2048.042969 1562.210938 2135.296875 C 1568.78125 2208.542969 1582.578125 2310.84375 1504.269531 2323.773438 C 1483.988281 2327.117188 1401.699219 2327.128906 1382.351562 2322.6875 C 1346.328125 2314.433594 1332.25 2288.714844 1326.730469 2253.683594 Z M 1832.398438 2315.796875 C 1809.75 2305.601562 1815.429688 2291.4375 1820 2256.316406 C 1821.738281 2243.007812 1823.121094 2204.050781 1831.621094 2193.152344 C 1838.078125 2208.179688 1832.710938 2302.375 1832.398438 2315.796875 Z M 1723.691406 2304.851562 C 1723.890625 2296.335938 1781.960938 2200.566406 1795.558594 2175.324219 C 1803.308594 2160.953125 1810.328125 2140.558594 1825.339844 2134.132812 C 1826.609375 2166.15625 1815.339844 2224.085938 1811.339844 2258.75 C 1807.460938 2292.410156 1816.328125 2292.519531 1783.308594 2297.058594 C 1765.21875 2299.542969 1740.769531 2304.75 1723.691406 2304.851562 Z M 2097.050781 2214.984375 C 2096.761719 2267.742188 2104.210938 2337.804688 2082.480469 2380.542969 C 2065.261719 2379.835938 2006.820312 2356.621094 1991.648438 2347.445312 C 1988.378906 2214.402344 1990.410156 2025.289062 1990.339844 1894.859375 C 1990.328125 1869.046875 2062.628906 1751.5 2081.96875 1712.449219 C 2088.320312 1699.628906 2087.980469 1693.628906 2100.289062 1687.589844 C 2103.730469 1724.761719 2097.050781 2214.839844 2097.050781 2214.984375 Z M 1068.25 2134.855469 C 1081.289062 2139.652344 1168.640625 2304.242188 1168.671875 2304.660156 C 1151.839844 2304.777344 1127.058594 2299.726562 1109.480469 2297.160156 C 1076.050781 2292.285156 1084.371094 2289.722656 1080.300781 2255.890625 C 1077.851562 2235.609375 1063.050781 2146.363281 1068.25 2134.855469 Z M 1444.660156 2014.519531 C 1456.621094 2018.28125 1465.71875 2026.289062 1475.78125 2032.617188 C 1481.410156 2036.160156 1484.160156 2037.410156 1490.960938 2041.847656 C 1499.890625 2047.660156 1499.921875 2047.554688 1505.410156 2055.019531 C 1483.429688 2054.027344 1469.140625 2056.570312 1448.199219 2056.875 C 1426.25 2057.191406 1410.101562 2053.699219 1386.828125 2055.183594 C 1394.578125 2043.785156 1402.460938 2040.859375 1414.378906 2033.472656 C 1425.429688 2026.621094 1433.808594 2021.132812 1444.660156 2014.519531 Z M 790.777344 1687.589844 C 803.929688 1690.789062 804.371094 1700.039062 810.820312 1712.5 L 895.761719 1870.371094 C 907.355469 1892.722656 902.164062 1932.570312 902.128906 1961.699219 C 901.96875 2089.746094 902.597656 2219.132812 900.753906 2347.066406 C 890.824219 2355.027344 825.035156 2380.058594 811.445312 2380.167969 C 785.796875 2349.292969 795.265625 2268.226562 795.074219 2222.019531 C 794.363281 2050.363281 786.695312 1854.234375 790.777344 1687.589844 Z M 2243.210938 1343.109375 C 2252.921875 1336.671875 2249.019531 1338.359375 2260.789062 1339.269531 L 2263.851562 1354.660156 C 2269.269531 1423.96875 2283.570312 1499.078125 2291.070312 1570.679688 C 2298.691406 1643.378906 2305.609375 1722.441406 2309.679688 1796.519531 C 2318.019531 1948.269531 2316.699219 2115.207031 2289.628906 2258.398438 C 2259 2267.082031 2143.171875 2279.78125 2107.03125 2277.117188 C 2100.421875 2250.875 2106.859375 2085.792969 2107.339844 2046.128906 C 2108.871094 1919.410156 2105.359375 1707.710938 2113.738281 1589.871094 C 2118.089844 1528.570312 2109.589844 1384.140625 2114.03125 1361.53125 Z M 785.195312 2276.695312 C 759.929688 2280.03125 623.355469 2266.878906 603.957031 2257.199219 C 592.183594 2232.304688 580.9375 2075.226562 579.621094 2035.574219 C 572.738281 1827.878906 597.726562 1540.269531 631.035156 1341.398438 C 643.867188 1339.429688 759.59375 1357.320312 778.207031 1361.890625 C 782.929688 1388.070312 778.058594 1443.46875 777.0625 1472.710938 C 775.820312 1509.070312 775.894531 1549.589844 778.023438 1585.191406 C 785.515625 1710.488281 784.335938 1915.023438 785.046875 2046.222656 C 785.261719 2085.660156 791.695312 2250.335938 785.195312 2276.695312 Z M 2279.371094 1389.449219 C 2313.039062 1414.980469 2346.128906 1706.78125 2348.328125 1743.449219 C 2352.550781 1813.511719 2352.640625 1887.699219 2346.640625 1955.867188 C 2343.710938 1989.109375 2333.25 2125.632812 2317.078125 2140.035156 C 2313.320312 2133.140625 2321.199219 1976.433594 2321.199219 1951.144531 C 2321.199219 1814.269531 2312.339844 1706.429688 2298.839844 1571.78125 C 2295.78125 1541.28125 2275.46875 1405.808594 2279.371094 1389.449219 Z M 575.75 2139.894531 C 558.4375 2129.570312 548.074219 1985.617188 545.710938 1959.039062 C 531.09375 1794.601562 548.914062 1592.710938 595.246094 1432.191406 C 599.160156 1418.628906 601.34375 1400.808594 610.929688 1390.578125 C 613.199219 1394.410156 612.628906 1391.21875 613.53125 1399.269531 C 613.859375 1402.230469 613.542969 1408.671875 613.210938 1411.738281 L 604.257812 1476.609375 C 584.859375 1622.949219 570.859375 1800.769531 570.855469 1947.628906 C 570.855469 1969.730469 576.816406 2137.148438 575.75 2139.894531 Z M 783.066406 1353.058594 C 762.933594 1352.851562 642.863281 1336.460938 632.941406 1328.488281 C 643.269531 1296.640625 742.546875 1223.25 795.523438 1214.628906 Z M 2096.660156 1214.628906 C 2150.820312 1224.46875 2247.398438 1296.300781 2259.128906 1328.488281 C 2249.941406 1336.378906 2129.5 1352.46875 2108.441406 1353.378906 Z M 1272.269531 1032.609375 L 1272.53125 1030.539062 C 1254.378906 1010.21875 1035.011719 910.78125 1007.191406 885.238281 C 1011.210938 872.390625 1005.789062 882.558594 1014.539062 873.75 C 1015.460938 872.828125 1023.519531 867 1026.609375 864.75 C 1054.699219 844.378906 1070.699219 832.621094 1102.75 814.238281 C 1126.289062 800.738281 1193.230469 767.53125 1226.511719 768.429688 C 1222.679688 810.859375 1220.488281 866.820312 1219.960938 910 C 1219.640625 935.011719 1233.460938 940.21875 1246.441406 956.808594 C 1256.78125 970.011719 1270.660156 987.808594 1284.519531 996.929688 L 1285.589844 996.558594 C 1279.398438 982.628906 1256.800781 958.640625 1244.300781 944.910156 C 1221.339844 919.660156 1227.078125 914.058594 1229.488281 869.769531 C 1234.96875 768.878906 1231.488281 700.570312 1231.488281 600.289062 C 1231.488281 571.121094 1225.230469 534.089844 1242.011719 517.320312 C 1264.378906 494.980469 1276.199219 476.78125 1296.578125 475.328125 C 1339.140625 472.289062 1521.371094 476.058594 1578.378906 475.421875 C 1616.71875 474.988281 1605.058594 473.78125 1641.210938 509.261719 C 1667.589844 535.160156 1660.828125 528.949219 1660.828125 586.21875 C 1660.820312 688.421875 1656.351562 761.929688 1662.171875 864 C 1665.839844 928.28125 1670.601562 916.230469 1646.820312 945.550781 C 1644.578125 954.5 1643.019531 952.058594 1652.488281 952.058594 C 1677.660156 914.109375 1673.378906 929.871094 1670.410156 871.148438 C 1668.691406 837.140625 1668.339844 802.019531 1665.519531 767.980469 C 1717.128906 769.390625 1839 838.28125 1876.039062 872.390625 C 1886.730469 882.230469 1881.140625 873.75 1884.910156 885.238281 C 1869.890625 898.378906 1683.910156 995.558594 1659.261719 1004.878906 C 1659.261719 1014.070312 1656.96875 1012.421875 1665.78125 1010.28125 C 1729.921875 972.949219 1848.929688 913.308594 1920.121094 875.320312 C 2081.53125 789.179688 2269.390625 700.730469 2436.03125 617.328125 C 2486.359375 592.140625 2661.769531 502.921875 2705.039062 494.011719 C 2695.859375 509.210938 2468.441406 636.078125 2435.148438 654.980469 L 1652.460938 1107.121094 C 1639.179688 1114.570312 1628.640625 1124.800781 1612.511719 1123.738281 C 1618.910156 1133.488281 1600.160156 1130.21875 1620.558594 1131.699219 C 1642.828125 1123.289062 2495.921875 628.339844 2576.441406 581.800781 C 2606 564.71875 2689.941406 511.378906 2715.71875 504.539062 C 2709.390625 534.910156 2614.589844 605.851562 2582.800781 630.308594 C 2565.429688 643.671875 2552.460938 656.460938 2534.640625 670.070312 C 2487.800781 705.859375 2387.398438 789.308594 2342.859375 826.589844 C 2317.378906 847.921875 1972.398438 1123.789062 1962.78125 1140.550781 L 1961.800781 1141.609375 C 1974.171875 1135.808594 1990.039062 1122.261719 2000.289062 1113.699219 C 2010.671875 1105.03125 2024.921875 1091.558594 2035.648438 1087.46875 C 2051 1096.441406 2069.070312 1142.550781 2076.5 1164.230469 C 2089.480469 1202.148438 2090.660156 1228.171875 2094.5 1270.378906 C 2104.988281 1385.390625 2104.160156 1506.359375 2103 1624 C 2102.519531 1672.449219 2091.53125 1680.171875 2071.710938 1716.441406 C 2042.949219 1769.089844 2010.390625 1825.191406 1986.101562 1876.992188 C 1970.171875 1876.992188 1859.441406 1851.839844 1850.480469 1845.609375 C 1856.109375 1818.410156 1917.359375 1755.519531 1929.949219 1722.511719 L 1928.558594 1723.339844 C 1914.171875 1732.011719 1891.570312 1771.910156 1879.78125 1788.25 C 1865.21875 1808.449219 1840.019531 1834.691406 1839.828125 1862.953125 C 1839.578125 1898.609375 1840.75 2067.84375 1834.929688 2089.078125 C 1831.449219 2101.765625 1804.710938 2146.175781 1796.089844 2161.957031 C 1763.109375 2222.296875 1730.371094 2288.410156 1681.859375 2336.113281 C 1671.539062 2346.265625 1663.148438 2358.152344 1644.351562 2360.285156 C 1648 2345.707031 1672.578125 2314.230469 1683.101562 2295.164062 C 1709.710938 2246.984375 1768.539062 2126.808594 1778.960938 2081.324219 L 1776.570312 2081.117188 C 1767.800781 2090.300781 1742.960938 2156.816406 1737.269531 2169.863281 C 1714.550781 2221.90625 1681.660156 2291.542969 1650.46875 2336.421875 C 1631.308594 2363.984375 1622.078125 2376.996094 1596.050781 2376.96875 C 1583.5 2376.957031 1576.128906 2376.082031 1570.679688 2366.253906 C 1571.980469 2285.375 1580.53125 2209.253906 1571.460938 2127.21875 C 1565.878906 2076.722656 1559.390625 2075.0625 1523.488281 2051.738281 C 1506.738281 2040.851562 1461.699219 2008.679688 1444.660156 2003.152344 C 1419.058594 2017.40625 1394.320312 2035.09375 1369.191406 2051.582031 C 1335.109375 2073.945312 1326.148438 2077.222656 1320.53125 2129.257812 C 1316.421875 2167.21875 1315.269531 2211.882812 1316.621094 2250.164062 C 1317.679688 2280.289062 1323.511719 2346.757812 1320.269531 2371.910156 C 1272.011719 2386.988281 1269.101562 2368.339844 1246.441406 2344.105469 L 1242.511719 2344.113281 L 1248.300781 2359.859375 C 1207.261719 2355.257812 1156.140625 2268.574219 1132.589844 2228.042969 C 1117.949219 2202.867188 1102.121094 2174.285156 1088.738281 2148.761719 C 1072.320312 2117.425781 1055.269531 2102.0625 1055.378906 2060.34375 C 1055.480469 2019.539062 1054.601562 1978.035156 1054.25 1937.070312 C 1054.078125 1917.824219 1052.421875 1899.277344 1052.328125 1880.773438 C 1052.058594 1821.328125 1045.179688 1839.585938 989.46875 1755.539062 C 976.398438 1735.828125 953.207031 1697.550781 936.679688 1684.03125 L 934.828125 1683.808594 C 949.847656 1717.890625 1035.140625 1819.578125 1041.660156 1845.609375 C 1024.800781 1855.488281 931.054688 1876.5 906.03125 1877.285156 C 894.46875 1851.429688 878.515625 1826.710938 864.804688 1799.308594 C 780.535156 1630.890625 788.515625 1717.480469 788.652344 1504.378906 C 788.710938 1422.890625 789.207031 1356.070312 797.195312 1275.671875 C 800.984375 1237.53125 801.671875 1203.359375 813.582031 1168.949219 C 821.980469 1144.660156 840.816406 1100.050781 854.289062 1087.410156 C 874.964844 1091.949219 905.222656 1129.921875 931.03125 1142.050781 L 929.410156 1140.738281 C 920.007812 1124.910156 855.03125 1076.089844 836.230469 1060.898438 L 313.363281 634.03125 C 283.675781 609.820312 182.273438 533.359375 176.371094 504.539062 C 194.664062 508.429688 258.480469 548.710938 278.296875 560.089844 L 779.433594 850.5 C 801.15625 863.039062 963.050781 960 982.675781 965.640625 L 983.9375 963.921875 C 973.996094 951.921875 901.464844 912.230469 887.359375 904.210938 L 586.257812 730.46875 C 489.496094 675.230469 385.730469 612.078125 287.828125 557.449219 C 266.152344 545.359375 202.839844 511.769531 190.304688 498.28125 C 192.96875 496.871094 186.269531 496.820312 196.074219 496.960938 C 212.691406 497.191406 312.894531 547.269531 326.453125 554.199219 C 371.664062 577.320312 418.507812 599.191406 463.671875 620.96875 C 581.40625 677.738281 750.9375 760.230469 867.363281 822.320312 C 927.601562 854.441406 1257.699219 1027.21875 1272.269531 1032.609375 Z M 1219.511719 755.078125 C 1166.191406 759.519531 1088.171875 804.578125 1046.601562 835.449219 C 1044.199219 837.230469 997.972656 871.171875 997.890625 871.171875 C 978.039062 871.171875 825.957031 786.960938 797.375 772.671875 C 706.234375 727.101562 225.566406 480.691406 192.304688 480.691406 C 143.179688 480.691406 167.292969 523.328125 186.03125 543.25 L 228.917969 581.269531 L 703.441406 968.621094 C 732.550781 993.390625 822.621094 1056.898438 839.589844 1082.238281 C 837.058594 1091.699219 823.566406 1113.96875 818.429688 1124.398438 C 797.699219 1166.441406 803.777344 1196.210938 774.886719 1207.511719 C 703.234375 1235.511719 630.683594 1282.800781 605.171875 1357.910156 C 545.679688 1533.078125 530.015625 1670.160156 530.015625 1873.753906 C 530.015625 1950.105469 536.828125 2024.304688 548.5625 2090.902344 C 554.1875 2122.847656 561.855469 2159.058594 568.425781 2190.648438 C 572.089844 2208.277344 584.019531 2265.5 603.894531 2274.789062 C 609.023438 2277.773438 603.078125 2275.382812 610.105469 2275.878906 C 610.144531 2275.878906 616.101562 2275.929688 617.664062 2276.019531 L 769.144531 2290.542969 C 777.738281 2291.515625 774.488281 2282.964844 778.980469 2296.664062 C 784.949219 2314.882812 784.339844 2394.394531 807.929688 2394.394531 C 847.488281 2394.394531 883.621094 2360.988281 920.871094 2356.070312 C 956.839844 2351.316406 987.402344 2351.960938 1025.171875 2347.515625 C 1044.949219 2345.183594 1038.039062 2348.226562 1057.691406 2348.664062 L 1079.429688 2317.632812 C 1080.078125 2316.878906 1090.070312 2306.457031 1091.289062 2309.40625 L 1100.789062 2308.816406 L 1150.238281 2315.917969 C 1189.691406 2321.191406 1175.691406 2320.640625 1197.429688 2342.605469 C 1218.191406 2363.585938 1257.050781 2390.878906 1296.910156 2390.878906 C 1310.160156 2390.878906 1303.558594 2388.5625 1318.011719 2387.359375 C 1318.011719 2411.769531 1321.648438 2441.738281 1325.449219 2464.355469 C 1329.359375 2487.644531 1347.078125 2499.929688 1374.300781 2499.929688 C 1408.679688 2499.929688 1526.511719 2507.691406 1550.988281 2490.171875 C 1574.261719 2473.523438 1574.820312 2414.558594 1574.820312 2387.359375 C 1600.890625 2389.527344 1612.949219 2396.296875 1650.761719 2375.359375 C 1709.679688 2342.730469 1692.699219 2322.320312 1739.488281 2316.339844 C 1758.25 2313.9375 1785.101562 2310.730469 1803.480469 2306.449219 C 1812.96875 2320.621094 1825.648438 2334.492188 1835.140625 2348.664062 C 1855.289062 2346.984375 1875.671875 2347.09375 1896.96875 2350.152344 C 1919.941406 2353.453125 1942.011719 2354.550781 1965.359375 2355.632812 C 1994 2356.957031 2053.441406 2394.394531 2074.351562 2394.394531 C 2110.191406 2394.394531 2109.050781 2331.789062 2112.550781 2305.710938 C 2116.230469 2278.324219 2124.96875 2294.808594 2212.621094 2282.898438 C 2238.410156 2279.394531 2268.398438 2273.519531 2288.941406 2278.308594 C 2323.328125 2226.941406 2332.140625 2160.523438 2342.238281 2099.425781 C 2365.679688 1957.570312 2365.890625 1810.410156 2355.558594 1666.421875 C 2351.851562 1614.839844 2340.398438 1554.109375 2328.371094 1503.640625 C 2316.53125 1453.941406 2301.660156 1400.289062 2284.980469 1353.550781 C 2277.46875 1332.5 2276.890625 1328.171875 2264.378906 1310.828125 C 2255.519531 1298.550781 2245 1289.289062 2233.601562 1278.289062 C 2201.511719 1247.300781 2157.238281 1223.75 2115.371094 1206.550781 C 2092.609375 1197.199219 2099.210938 1189.171875 2091.46875 1167.140625 C 2086.300781 1152.421875 2079.578125 1138.621094 2072.871094 1122.421875 C 2065.320312 1104.210938 2057.820312 1094.019531 2049.71875 1078.71875 C 2084.089844 1060.539062 2145.058594 1002.78125 2178.78125 975.601562 C 2279.96875 894.019531 2381.871094 813.078125 2481.328125 729.359375 C 2537.679688 681.941406 2595.011719 633.488281 2653.261719 588.210938 C 2674.421875 571.75 2697.660156 553.558594 2714.179688 533.039062 C 2722.820312 522.320312 2728.671875 515.011719 2728.671875 498.28125 C 2728.671875 488.21875 2711.609375 480.691406 2704.039062 480.691406 C 2690.628906 480.691406 2614.828125 516.441406 2599.699219 524.089844 C 2433.261719 608.199219 2264.601562 688.101562 2097.800781 771.5 L 1948.878906 847.71875 C 1932.53125 855.890625 1912.148438 862.78125 1898.460938 874.691406 C 1864.511719 851.949219 1831.941406 825.171875 1796.28125 804.488281 C 1772.511719 790.691406 1704.839844 757.699219 1673.320312 755.078125 C 1673.320312 695.269531 1673.300781 635.46875 1673.320312 575.671875 C 1673.320312 563.96875 1674.558594 544.011719 1673.429688 533.351562 C 1671.828125 518.289062 1664.578125 515.699219 1654.859375 506.179688 C 1645.890625 497.390625 1617.929688 463.101562 1606.480469 463.101562 L 1282.839844 463.101562 C 1271.558594 463.101562 1244.980469 495.769531 1236.160156 504.371094 C 1212.871094 527.058594 1219.5 533.511719 1219.511719 575.671875 C 1219.53125 635.46875 1219.511719 695.269531 1219.511719 755.078125 "/>
<path fill-rule="evenodd" fill="rgb(99.021912%, 99.021912%, 99.021912%)" fill-opacity="1" d="M 837.402344 1471.511719 L 835.523438 1483.199219 C 889.109375 1521.691406 1298.46875 1608.640625 1396.289062 1630.511719 C 1464.871094 1645.839844 1466.171875 1636.398438 1545.578125 1619.5 C 1594.699219 1609.050781 1643.820312 1597.390625 1691.710938 1586.230469 L 1976.78125 1516.339844 C 1985.238281 1508.761719 2043.960938 1490 2057.109375 1484.691406 C 2044.019531 1438.460938 1877.519531 1347.429688 1819.621094 1322.910156 C 1805.511719 1316.929688 1777.769531 1300.058594 1764.03125 1306.140625 C 1760.539062 1307.691406 1681.300781 1373.789062 1678.300781 1377.769531 L 1686.421875 1434.019531 C 1677.398438 1444.671875 1668.019531 1448.710938 1657.261719 1456.679688 C 1630.789062 1476.261719 1457.988281 1597.378906 1444.660156 1602.289062 C 1404.988281 1577.589844 1365.109375 1547.601562 1324.660156 1518.871094 C 1298.058594 1499.988281 1223.648438 1451.199219 1204.78125 1433.878906 L 1213.25 1373.441406 C 1195.570312 1365.808594 1150.5 1319.75 1121.019531 1302.449219 C 1070.519531 1321.578125 1010.199219 1350.429688 967.941406 1375.929688 C 907.496094 1412.390625 845.761719 1466.761719 837.402344 1471.511719 "/>
<path fill-rule="evenodd" fill="rgb(99.021912%, 99.021912%, 99.021912%)" fill-opacity="1" d="M 1620.558594 1131.699219 C 1618.550781 1147.699219 1671.609375 1343.410156 1679.941406 1362.878906 C 1700.449219 1357.949219 1847.121094 1224.441406 1873.820312 1212.199219 C 1875.191406 1202.648438 1870.339844 1212.160156 1881.601562 1202.828125 C 1895.679688 1191.171875 1949.820312 1142.441406 1962.78125 1140.550781 C 1972.398438 1123.789062 2317.378906 847.921875 2342.859375 826.589844 C 2387.398438 789.308594 2487.800781 705.859375 2534.640625 670.070312 C 2552.460938 656.460938 2565.429688 643.671875 2582.800781 630.308594 C 2614.589844 605.851562 2709.390625 534.910156 2715.71875 504.539062 C 2689.941406 511.378906 2606 564.71875 2576.441406 581.800781 C 2495.921875 628.339844 1642.828125 1123.289062 1620.558594 1131.699219 "/>
<path fill-rule="evenodd" fill="rgb(99.021912%, 99.021912%, 99.021912%)" fill-opacity="1" d="M 929.410156 1140.738281 C 939.839844 1142.898438 1038.660156 1223.808594 1040.121094 1230.171875 C 1055.691406 1237.519531 1071.878906 1253.070312 1086.308594 1264.699219 C 1099.480469 1275.308594 1113.328125 1287.929688 1126.789062 1298.050781 C 1142.179688 1309.628906 1154.859375 1319.988281 1169.75 1332.558594 C 1180.96875 1342.03125 1199.289062 1360.429688 1212.410156 1362.820312 C 1222.359375 1334.300781 1271.730469 1160.03125 1272.378906 1135.058594 C 1250.628906 1126.089844 986.789062 971.148438 982.675781 965.640625 C 963.050781 960 801.15625 863.039062 779.433594 850.5 L 278.296875 560.089844 C 258.480469 548.710938 194.664062 508.429688 176.371094 504.539062 C 182.273438 533.359375 283.675781 609.820312 313.363281 634.03125 L 836.230469 1060.898438 C 855.03125 1076.089844 920.007812 1124.910156 929.410156 1140.738281 "/>
<path fill-rule="evenodd" fill="rgb(99.021912%, 99.021912%, 99.021912%)" fill-opacity="1" d="M 2145.71875 2097.535156 C 2160.199219 2091.253906 2215.78125 2084.140625 2232.128906 2085.03125 C 2235.449219 2106.953125 2240.148438 2217.300781 2236.039062 2236.09375 C 2221.210938 2241.375 2161.808594 2242.761719 2145.511719 2239.230469 Z M 2151.738281 1926.4375 C 2165.800781 1920.53125 2219 1914.214844 2236.199219 1915.855469 C 2237.441406 1940.804688 2240.371094 2040.003906 2233.929688 2057.871094 C 2215.851562 2060.609375 2198.140625 2060.445312 2179.769531 2061.058594 C 2148.628906 2062.101562 2148.269531 2066.042969 2148.738281 2035.859375 C 2149.101562 2013.148438 2145.101562 1942.226562 2151.738281 1926.4375 Z M 2145.808594 1782.289062 C 2145.710938 1748.050781 2140.609375 1751.390625 2176.21875 1751.921875 C 2195.328125 1752.210938 2215.050781 1750.628906 2234.910156 1752.789062 C 2238.601562 1784.128906 2240.359375 1857.0625 2233.769531 1886.003906 L 2150.148438 1885.730469 C 2143.988281 1866.375 2145.859375 1806.648438 2145.808594 1782.289062 Z M 2144.261719 1588.808594 C 2156.671875 1584.410156 2219.898438 1584.230469 2232.660156 1588.808594 C 2238.308594 1603.320312 2238.101562 1701.710938 2233.308594 1715.589844 C 2227.589844 1722.839844 2155.730469 1720.128906 2145.738281 1716.789062 Z M 2146.148438 1431.859375 C 2163.5 1428 2215.441406 1423.828125 2232.398438 1428.738281 L 2228.800781 1557.191406 L 2145.511719 1556.511719 C 2142.558594 1537.378906 2141.960938 1449.058594 2146.148438 1431.859375 Z M 2263.851562 1354.660156 L 2257.261719 1340.960938 L 2243.210938 1343.109375 L 2114.03125 1361.53125 C 2109.589844 1384.140625 2118.089844 1528.570312 2113.738281 1589.871094 C 2105.359375 1707.710938 2108.871094 1919.410156 2107.339844 2046.128906 C 2106.859375 2085.792969 2100.421875 2250.875 2107.03125 2277.117188 C 2143.171875 2279.78125 2259 2267.082031 2289.628906 2258.398438 C 2316.699219 2115.207031 2318.019531 1948.269531 2309.679688 1796.519531 C 2305.609375 1722.441406 2298.691406 1643.378906 2291.070312 1570.679688 C 2283.570312 1499.078125 2269.269531 1423.96875 2263.851562 1354.660156 "/>
<path fill-rule="evenodd" fill="rgb(99.021912%, 99.021912%, 99.021912%)" fill-opacity="1" d="M 656.21875 2236.09375 C 651.804688 2216.363281 656.695312 2107.390625 659.996094 2084.515625 C 674.675781 2084.636719 689.871094 2087.53125 704.238281 2089.367188 C 721.351562 2091.546875 733.402344 2090.375 746.425781 2099.734375 L 746.640625 2238.601562 C 730.378906 2243.582031 671.941406 2241.476562 656.21875 2236.09375 Z M 658.496094 2058.167969 C 651.105469 2039.058594 654.566406 1941.566406 655.945312 1915.476562 C 675.859375 1914.578125 725.351562 1919.628906 741.089844 1927.011719 C 745.0625 1938.941406 744.296875 2041.292969 742.070312 2057.789062 C 724.136719 2065.414062 679.300781 2060.363281 658.496094 2058.167969 Z M 658.703125 1885.554688 C 652.3125 1870.492188 652.382812 1768.121094 658.476562 1752.148438 L 743.472656 1752.390625 C 749.808594 1769.75 747.546875 1866.367188 742.28125 1886.019531 Z M 656.660156 1606.398438 C 656.660156 1588.929688 657.179688 1586.578125 674.25 1586.578125 L 746.710938 1586.960938 C 750.625 1598.609375 748.402344 1680.390625 747.328125 1701.730469 C 746.492188 1718.261719 747.34375 1719.601562 730.753906 1719.601562 C 699.859375 1719.71875 685.472656 1722.378906 657.753906 1716.609375 C 655.46875 1684.75 656.660156 1639.671875 656.660156 1606.398438 Z M 661.378906 1428.121094 C 679.511719 1423.960938 732.027344 1426.621094 745.605469 1433.21875 C 752.269531 1451.089844 750.15625 1532.300781 746.683594 1556.019531 C 729.117188 1558.71875 678.292969 1559.910156 661.789062 1554.828125 Z M 785.195312 2276.695312 C 791.695312 2250.335938 785.261719 2085.660156 785.046875 2046.222656 C 784.335938 1915.023438 785.515625 1710.488281 778.023438 1585.191406 C 775.894531 1549.589844 775.820312 1509.070312 777.0625 1472.710938 C 778.058594 1443.46875 782.929688 1388.070312 778.207031 1361.890625 C 759.59375 1357.320312 643.867188 1339.429688 631.035156 1341.398438 C 597.726562 1540.269531 572.738281 1827.878906 579.621094 2035.574219 C 580.9375 2075.226562 592.183594 2232.304688 603.957031 2257.199219 C 623.355469 2266.878906 759.929688 2280.03125 785.195312 2276.695312 "/>
<path fill-rule="evenodd" fill="rgb(83.984375%, 11.009216%, 7.006836%)" fill-opacity="1" d="M 1275.351562 1255.070312 C 1293.210938 1263.140625 1341.121094 1303.429688 1360.101562 1318.050781 C 1374.488281 1329.121094 1387.519531 1338.421875 1402.238281 1349.78125 C 1416.519531 1360.800781 1430.71875 1373.578125 1444.660156 1381.578125 C 1456.789062 1377.230469 1605.628906 1263.648438 1617.429688 1251.019531 L 1559.128906 953.511719 C 1505.871094 944.429688 1388.378906 947.261719 1332.789062 952.941406 L 1275.351562 1255.070312 "/>
<path fill-rule="evenodd" fill="rgb(99.021912%, 99.021912%, 99.021912%)" fill-opacity="1" d="M 934.828125 1683.808594 C 928.632812 1680.050781 931.574219 1544.351562 931.597656 1524.53125 C 905.988281 1517.941406 834.628906 1499.941406 825.648438 1479.101562 L 837.589844 1471.738281 C 862.921875 1426.691406 981.371094 1360.328125 1037.179688 1332.71875 C 1051.988281 1325.398438 1104.171875 1304.488281 1111.648438 1296.828125 C 1100.640625 1274.570312 1056.761719 1255.769531 1041.269531 1231.421875 C 1021.480469 1227.308594 1028.160156 1214.28125 1005.738281 1212.488281 C 1008.011719 1240.171875 1016.75 1246.210938 1008.378906 1278.851562 C 991.289062 1345.53125 920.574219 1380.789062 871.46875 1331.800781 C 800.40625 1260.910156 843.722656 1153.539062 930.652344 1151.730469 L 931.03125 1142.050781 C 905.222656 1129.921875 874.964844 1091.949219 854.289062 1087.410156 C 840.816406 1100.050781 821.980469 1144.660156 813.582031 1168.949219 C 801.671875 1203.359375 800.984375 1237.53125 797.195312 1275.671875 C 789.207031 1356.070312 788.710938 1422.890625 788.652344 1504.378906 C 788.515625 1717.480469 780.535156 1630.890625 864.804688 1799.308594 C 878.515625 1826.710938 894.46875 1851.429688 906.03125 1877.285156 C 931.054688 1876.5 1024.800781 1855.488281 1041.660156 1845.609375 C 1035.140625 1819.578125 949.847656 1717.890625 934.828125 1683.808594 "/>
<path fill-rule="evenodd" fill="rgb(99.021912%, 99.021912%, 99.021912%)" fill-opacity="1" d="M 1961.800781 1141.609375 L 1961.738281 1152.011719 C 2059.21875 1149.488281 2079.328125 1280.300781 2022.230469 1332.648438 C 1990.101562 1362.109375 1942.441406 1359.898438 1911.640625 1329.371094 C 1868.699219 1286.78125 1882.960938 1243.449219 1886.261719 1211.441406 L 1872.308594 1213.679688 C 1857.398438 1239.390625 1787.578125 1276.351562 1780.539062 1296.828125 C 1786.78125 1303.980469 1845.621094 1328.160156 1860.039062 1335.378906 C 1912.839844 1361.808594 2051.980469 1442.621094 2066.769531 1483.890625 C 2046.710938 1498.449219 2010.460938 1511.921875 1979.390625 1518.371094 L 1961.949219 1525.488281 C 1957.320312 1553.878906 1960.421875 1610.101562 1960.480469 1641.578125 C 1960.519531 1663.699219 1964.179688 1677.761719 1953.488281 1693.03125 C 1947.371094 1701.769531 1937.671875 1718.78125 1929.949219 1722.511719 C 1917.359375 1755.519531 1856.109375 1818.410156 1850.480469 1845.609375 C 1859.441406 1851.839844 1970.171875 1876.992188 1986.101562 1876.992188 C 2010.390625 1825.191406 2042.949219 1769.089844 2071.710938 1716.441406 C 2091.53125 1680.171875 2102.519531 1672.449219 2103 1624 C 2104.160156 1506.359375 2104.988281 1385.390625 2094.5 1270.378906 C 2090.660156 1228.171875 2089.480469 1202.148438 2076.5 1164.230469 C 2069.070312 1142.550781 2051 1096.441406 2035.648438 1087.46875 C 2024.921875 1091.558594 2010.671875 1105.03125 2000.289062 1113.699219 C 1990.039062 1122.261719 1974.171875 1135.808594 1961.800781 1141.609375 "/>
<path fill-rule="evenodd" fill="rgb(83.984375%, 11.009216%, 7.006836%)" fill-opacity="1" d="M 1216.089844 1430.511719 C 1241.480469 1453.699219 1436.890625 1587.359375 1448.550781 1591.410156 C 1463.320312 1578.558594 1488.179688 1562.660156 1505.519531 1551.148438 C 1522 1540.199219 1674.53125 1434.5 1675.980469 1430.511719 C 1675.21875 1393.441406 1655.179688 1282.75 1638.140625 1254.949219 C 1626.429688 1259.390625 1519.371094 1343.070312 1493.371094 1363.140625 C 1477.679688 1375.25 1461.109375 1390.988281 1443.488281 1398.839844 C 1437.039062 1390.929688 1267.910156 1261.980469 1254.691406 1254.828125 C 1239.078125 1275.269531 1217.398438 1394.039062 1216.089844 1430.511719 "/>
<path fill-rule="evenodd" fill="rgb(1.000977%, 1.000977%, 1.000977%)" fill-opacity="1" d="M 1534.761719 1787.871094 C 1596.660156 1797.460938 1557.828125 1813.710938 1655.800781 1806.179688 C 1781.101562 1796.539062 1756.320312 1819.441406 1829.480469 1751.988281 C 1851.578125 1731.621094 1937.238281 1648.089844 1950.691406 1642.558594 C 1945.808594 1656.53125 1930.460938 1670.5 1915.921875 1683.640625 C 1901.761719 1696.429688 1892.878906 1712.238281 1879.960938 1725.121094 C 1873.320312 1731.761719 1866.371094 1736.808594 1859.859375 1743.671875 C 1841.398438 1763.160156 1852.871094 1755.699219 1822.609375 1783.789062 C 1815.378906 1790.488281 1811.199219 1799.371094 1802.929688 1803.148438 C 1795.929688 1806.351562 1673.089844 1811.679688 1655.871094 1812.21875 C 1634 1812.910156 1605.390625 1818.988281 1585.480469 1810.429688 C 1570.589844 1804.039062 1546.148438 1787.691406 1534.761719 1787.871094 Z M 1325.859375 1798.621094 L 1312.238281 1808.238281 C 1311.71875 1808.5 1299.339844 1813.679688 1299.328125 1813.691406 C 1284.519531 1818.078125 1155.738281 1808.679688 1131.628906 1807.050781 C 1089.949219 1804.230469 1092.128906 1810.269531 1076.25 1791.859375 L 973.425781 1680.101562 C 962.304688 1668.5 942.910156 1659.371094 942.144531 1642.738281 C 957.273438 1650.691406 1059.210938 1750.71875 1089.800781 1774.878906 C 1108.179688 1789.398438 1102.578125 1797.699219 1134.988281 1800.371094 L 1268.550781 1808.648438 C 1301.648438 1810.75 1298.128906 1803.820312 1325.859375 1798.621094 Z M 947.347656 1597.511719 C 975.394531 1611.238281 1126.480469 1752.839844 1149.460938 1757.421875 C 1168.03125 1761.121094 1303.828125 1771.699219 1317.460938 1768.460938 C 1344.820312 1761.949219 1430.121094 1721.878906 1450.230469 1724.648438 C 1483.910156 1729.28125 1549.390625 1766.390625 1582.539062 1770.019531 C 1592.289062 1771.089844 1735.609375 1759.550781 1746.390625 1756.71875 C 1765.851562 1751.621094 1911.140625 1616.609375 1943.460938 1597.171875 L 1947.878906 1628.171875 L 1877.289062 1690.800781 C 1867.398438 1700.210938 1864.199219 1704.789062 1853.980469 1713.148438 C 1836.609375 1727.378906 1823.238281 1742.609375 1806.039062 1756.730469 C 1782.359375 1776.191406 1786.5 1787.230469 1747.328125 1789.238281 C 1700.828125 1791.621094 1620.660156 1804.789062 1581.191406 1790.058594 C 1560.148438 1782.210938 1460.71875 1742.671875 1447.539062 1741.71875 C 1438.511719 1741.070312 1334.988281 1780.839844 1316.429688 1787.820312 C 1270.589844 1805.039062 1201.460938 1792.191406 1149.078125 1789.449219 C 1105.78125 1787.191406 1103.339844 1773.410156 1064.851562 1736.449219 L 944.507812 1628.980469 Z M 1792.921875 1573.289062 C 1815.621094 1603.410156 1805.078125 1615.730469 1791.730469 1647.25 C 1774.929688 1686.921875 1778.839844 1677.660156 1744.828125 1699.011719 C 1701.390625 1726.289062 1708.289062 1728.320312 1674.980469 1721.25 C 1601.789062 1705.699219 1601.539062 1717.980469 1566.019531 1678.488281 C 1554.980469 1666.230469 1555.148438 1661.859375 1562.140625 1643.070312 C 1569.320312 1623.75 1566.289062 1623.941406 1587.839844 1619.371094 L 1710.988281 1591.378906 C 1736.058594 1585.75 1768.539062 1575.421875 1792.921875 1573.289062 Z M 1330.070312 1643.621094 C 1337.019531 1663.628906 1337.480469 1664.199219 1326.101562 1677.699219 C 1293.390625 1716.519531 1296.050781 1704.5 1217.761719 1721.101562 C 1180.191406 1729.058594 1177.878906 1717.679688 1150.171875 1700.371094 C 1117.511719 1679.96875 1116.539062 1687.710938 1100.570312 1647.789062 C 1074.578125 1582.859375 1086.339844 1611.769531 1095.96875 1573.421875 C 1123.078125 1573.851562 1257.328125 1608.898438 1304.808594 1619.488281 C 1325.539062 1624.121094 1324.109375 1626.46875 1330.070312 1643.621094 Z M 1349.851562 1671.121094 L 1338.078125 1627.621094 C 1367.949219 1631.710938 1420.109375 1649.660156 1445.121094 1650.128906 C 1468.058594 1650.558594 1525.558594 1631.550781 1554.238281 1627.5 C 1547.828125 1653.898438 1535.050781 1658.980469 1551 1679.308594 C 1557.851562 1688.039062 1577.460938 1711.25 1588.28125 1715.910156 C 1603.140625 1722.300781 1698.21875 1740.441406 1708.351562 1736.390625 C 1715.21875 1733.640625 1785.550781 1692.339844 1793.789062 1674.070312 C 1836.960938 1578.328125 1816.371094 1608.300781 1807.339844 1568.050781 L 1950.410156 1531.550781 C 1950.578125 1589.199219 1963.050781 1561.570312 1891.121094 1623.648438 C 1885.28125 1628.691406 1883.089844 1629.410156 1877.269531 1634.46875 C 1870.640625 1640.238281 1873.128906 1639.011719 1866.210938 1644.441406 L 1750.601562 1740.078125 C 1738.230469 1748.269531 1606.269531 1759.171875 1585.589844 1757.558594 C 1553.359375 1755.050781 1475.128906 1712.601562 1447.421875 1710.78125 C 1433.78125 1709.890625 1337.699219 1750.878906 1313.308594 1756.410156 C 1298.46875 1759.78125 1155.179688 1748.25 1143.78125 1742.089844 C 1135.359375 1737.539062 1127.101562 1728.03125 1118.578125 1721.390625 L 992.160156 1615.648438 C 983.203125 1608.628906 975.769531 1602.078125 966.996094 1595.050781 C 933.632812 1568.320312 941.605469 1582.429688 941.605469 1531.648438 L 1084.78125 1568.601562 C 1078.359375 1589.460938 1066.410156 1594.238281 1074.511719 1617.339844 C 1080.230469 1633.671875 1088.929688 1648.660156 1094.71875 1664.390625 C 1107.351562 1698.730469 1119.140625 1693.808594 1167.109375 1725.679688 C 1196.761719 1745.390625 1210.429688 1736.261719 1269.519531 1723.519531 C 1293.738281 1718.289062 1303.070312 1719.21875 1318.089844 1704.988281 C 1330.609375 1693.128906 1335.28125 1680.050781 1349.851562 1671.121094 Z M 934.828125 1683.808594 L 936.679688 1684.03125 L 940.507812 1670.898438 C 955.578125 1674.78125 1046.300781 1774.210938 1062.601562 1791.488281 C 1075.960938 1805.648438 1077.839844 1807.140625 1080.21875 1832.738281 C 1086.328125 1898.148438 1098.390625 2049.230469 1119.339844 2100.574219 C 1131.851562 2131.210938 1143.359375 2159.085938 1155.730469 2187.339844 C 1168.421875 2216.3125 1181.300781 2243.945312 1195.539062 2270.597656 C 1203.078125 2284.703125 1209.820312 2296.371094 1217.210938 2308.816406 C 1221.820312 2316.582031 1234.199219 2340.128906 1242.511719 2344.113281 L 1246.441406 2344.105469 C 1238.988281 2329.699219 1225.199219 2311.023438 1214.949219 2293.453125 C 1187.109375 2245.722656 1152.199219 2166.429688 1132.050781 2115.96875 C 1108.96875 2058.183594 1110.761719 2038.070312 1102.570312 1972.855469 C 1097.390625 1931.574219 1085.390625 1854.414062 1086.210938 1814.398438 C 1131.320312 1813.640625 1269.570312 1826.398438 1292.910156 1823.640625 C 1311.640625 1821.421875 1428.371094 1758.988281 1444.929688 1758.429688 C 1461.28125 1757.890625 1578.941406 1820.390625 1596.800781 1823.359375 C 1621.808594 1827.519531 1760.289062 1811.890625 1805.980469 1814.761719 C 1807.179688 1871.84375 1777.570312 2026.960938 1776.570312 2081.117188 L 1778.960938 2081.324219 C 1790.578125 2066.738281 1808.460938 1863.519531 1812.230469 1827.390625 C 1815.03125 1800.589844 1826.308594 1793.238281 1840.011719 1780.128906 C 1864.859375 1756.351562 1935.878906 1675.53125 1951.21875 1671.390625 C 1960.140625 1689.261719 1931.011719 1704.160156 1928.558594 1723.339844 L 1929.949219 1722.511719 C 1937.671875 1718.78125 1947.371094 1701.769531 1953.488281 1693.03125 C 1964.179688 1677.761719 1960.519531 1663.699219 1960.480469 1641.578125 C 1960.421875 1610.101562 1957.320312 1553.878906 1961.949219 1525.488281 L 1979.390625 1518.371094 L 1976.78125 1516.339844 L 1691.710938 1586.230469 C 1643.820312 1597.390625 1594.699219 1609.050781 1545.578125 1619.5 C 1466.171875 1636.398438 1464.871094 1645.839844 1396.289062 1630.511719 C 1298.46875 1608.640625 889.109375 1521.691406 835.523438 1483.199219 L 837.402344 1471.511719 L 837.589844 1471.738281 L 825.648438 1479.101562 C 834.628906 1499.941406 905.988281 1517.941406 931.597656 1524.53125 C 931.574219 1544.351562 928.632812 1680.050781 934.828125 1683.808594 "/>
<path fill-rule="evenodd" fill="rgb(99.021912%, 99.021912%, 99.021912%)" fill-opacity="1" d="M 1325.140625 892.171875 C 1320.789062 867.691406 1318.429688 627.949219 1322.859375 601.53125 C 1338.351562 598.238281 1471.949219 600.46875 1511.488281 599.878906 C 1522.039062 599.71875 1532.769531 599.53125 1543.300781 599.53125 L 1568.878906 603.191406 C 1573.320312 618.671875 1571.011719 865.550781 1566.960938 891.578125 C 1542.011719 896.460938 1475.578125 889.050781 1444.648438 889.039062 C 1409.089844 889.039062 1357.621094 896.089844 1325.140625 892.171875 Z M 1620.648438 921.578125 C 1622.78125 823.019531 1613.199219 720.71875 1615.640625 621.398438 C 1617.449219 547.421875 1619.671875 541.429688 1546.671875 539.261719 C 1498.589844 537.828125 1450.660156 536.140625 1402.429688 537.890625 C 1252.960938 543.308594 1276.789062 515.738281 1275.550781 712.859375 C 1275.238281 762.441406 1272.941406 811.140625 1272.339844 860.621094 C 1272.058594 884.238281 1265.859375 913.109375 1278.988281 927.78125 C 1285.738281 935.308594 1309.460938 958.890625 1318.011719 963.941406 C 1318.539062 963.070312 1318.910156 961.800781 1319.191406 961.121094 C 1329.171875 936.058594 1321.53125 942.878906 1374.421875 940.488281 C 1397.980469 939.429688 1424.671875 937.738281 1448.171875 937.960938 L 1560.019531 942.671875 C 1570.910156 946.46875 1563.730469 941.890625 1568.859375 951.199219 L 1575.140625 964.410156 L 1620.648438 921.578125 "/>
<path fill-rule="evenodd" fill="rgb(99.021912%, 99.021912%, 99.021912%)" fill-opacity="1" d="M 1841.328125 2332.480469 L 1983.308594 2343.78125 L 1981.488281 1951.144531 C 1981.378906 1878.980469 1987.949219 1886.738281 1952.949219 1878.917969 C 1928.851562 1873.535156 1862.25 1856 1847.359375 1857.25 L 1845.359375 2007.429688 L 1841.328125 2332.480469 "/>
<path fill-rule="evenodd" fill="rgb(99.021912%, 99.021912%, 99.021912%)" fill-opacity="1" d="M 1048.609375 2332.308594 C 1054.789062 2310.4375 1048.210938 2132.863281 1047.550781 2095.386719 C 1046.148438 2015.878906 1047.96875 1934.847656 1044.621094 1854.636719 L 910.617188 1886.160156 L 910.121094 2344.539062 L 1048.609375 2332.308594 "/>
<path fill-rule="evenodd" fill="rgb(99.021912%, 99.021912%, 99.021912%)" fill-opacity="1" d="M 790.777344 1687.589844 C 786.695312 1854.234375 794.363281 2050.363281 795.074219 2222.019531 C 795.265625 2268.226562 785.796875 2349.292969 811.445312 2380.167969 C 825.035156 2380.058594 890.824219 2355.027344 900.753906 2347.066406 C 902.597656 2219.132812 901.96875 2089.746094 902.128906 1961.699219 C 902.164062 1932.570312 907.355469 1892.722656 895.761719 1870.371094 L 810.820312 1712.5 C 804.371094 1700.039062 803.929688 1690.789062 790.777344 1687.589844 "/>
<path fill-rule="evenodd" fill="rgb(99.021912%, 99.021912%, 99.021912%)" fill-opacity="1" d="M 2097.050781 2214.984375 C 2097.050781 2214.839844 2103.730469 1724.761719 2100.289062 1687.589844 C 2087.980469 1693.628906 2088.320312 1699.628906 2081.96875 1712.449219 C 2062.628906 1751.5 1990.328125 1869.046875 1990.339844 1894.859375 C 1990.410156 2025.289062 1988.378906 2214.402344 1991.648438 2347.445312 C 2006.820312 2356.621094 2065.261719 2379.835938 2082.480469 2380.542969 C 2104.210938 2337.804688 2096.761719 2267.742188 2097.050781 2214.984375 "/>
<path fill-rule="evenodd" fill="rgb(99.021912%, 99.021912%, 99.021912%)" fill-opacity="1" d="M 983.9375 963.921875 C 1008.21875 966.660156 1256.128906 1127.039062 1276.878906 1125.671875 L 1281.261719 1050.230469 C 1279.640625 1032.78125 1280.308594 1042.289062 1272.269531 1032.609375 C 1257.699219 1027.21875 927.601562 854.441406 867.363281 822.320312 C 750.9375 760.230469 581.40625 677.738281 463.671875 620.96875 C 418.507812 599.191406 371.664062 577.320312 326.453125 554.199219 C 312.894531 547.269531 212.691406 497.191406 196.074219 496.960938 C 186.269531 496.820312 192.96875 496.871094 190.304688 498.28125 C 202.839844 511.769531 266.152344 545.359375 287.828125 557.449219 C 385.730469 612.078125 489.496094 675.230469 586.257812 730.46875 L 887.359375 904.210938 C 901.464844 912.230469 973.996094 951.921875 983.9375 963.921875 "/>
<path fill-rule="evenodd" fill="rgb(99.021912%, 99.021912%, 99.021912%)" fill-opacity="1" d="M 1665.78125 1010.28125 L 1612.609375 1039.488281 C 1605.289062 1062.929688 1619.398438 1098.230469 1612.511719 1123.738281 C 1628.640625 1124.800781 1639.179688 1114.570312 1652.460938 1107.121094 L 2435.148438 654.980469 C 2468.441406 636.078125 2695.859375 509.210938 2705.039062 494.011719 C 2661.769531 502.921875 2486.359375 592.140625 2436.03125 617.328125 C 2269.390625 700.730469 2081.53125 789.179688 1920.121094 875.320312 C 1848.929688 913.308594 1729.921875 972.949219 1665.78125 1010.28125 "/>
<path fill-rule="evenodd" fill="rgb(83.984375%, 11.009216%, 7.006836%)" fill-opacity="1" d="M 1333.28125 881.851562 C 1355.628906 887.039062 1416.941406 879 1444.648438 878.839844 C 1481.648438 878.621094 1521.128906 882.609375 1558.960938 884.089844 L 1561.828125 608.929688 L 1330.339844 610.570312 L 1333.28125 881.851562 "/>
<path fill-rule="evenodd" fill="rgb(99.021912%, 99.021912%, 99.021912%)" fill-opacity="1" d="M 1285.589844 996.558594 C 1289.441406 998.980469 1287.519531 988.53125 1290.390625 1004.851562 C 1290.378906 1028.519531 1279.679688 1097.640625 1289.441406 1112.78125 C 1298.691406 1090.691406 1314.488281 1001.019531 1318.058594 972.75 C 1306.359375 968.75 1281.230469 941.21875 1273.550781 933.289062 C 1257.238281 916.441406 1264.589844 886.589844 1264.691406 857.101562 C 1264.890625 802.25 1267.53125 746.21875 1267.730469 691.878906 C 1268.339844 524.550781 1243.269531 526.410156 1448.171875 528.339844 C 1646.160156 530.210938 1623.449219 517.289062 1624.28125 691.761719 C 1624.539062 747.050781 1627.171875 802.230469 1627.359375 857.101562 C 1627.609375 929.441406 1640.339844 911.179688 1586.898438 964.050781 L 1576.011719 974.75 C 1575.601562 975.171875 1574.710938 976.019531 1574.121094 976.699219 C 1579.121094 1001.449219 1583.921875 1026.359375 1588.441406 1050.769531 L 1598.910156 1103.980469 C 1601.078125 1114.46875 1600.648438 1115.578125 1606.621094 1121.109375 C 1607 1085.929688 1599.910156 1045.160156 1601.449219 1011.609375 C 1602.828125 981.441406 1634.640625 966.828125 1646.820312 945.550781 C 1670.601562 916.230469 1665.839844 928.28125 1662.171875 864 C 1656.351562 761.929688 1660.820312 688.421875 1660.828125 586.21875 C 1660.828125 528.949219 1667.589844 535.160156 1641.210938 509.261719 C 1605.058594 473.78125 1616.71875 474.988281 1578.378906 475.421875 C 1521.371094 476.058594 1339.140625 472.289062 1296.578125 475.328125 C 1276.199219 476.78125 1264.378906 494.980469 1242.011719 517.320312 C 1225.230469 534.089844 1231.488281 571.121094 1231.488281 600.289062 C 1231.488281 700.570312 1234.96875 768.878906 1229.488281 869.769531 C 1227.078125 914.058594 1221.339844 919.660156 1244.300781 944.910156 C 1256.800781 958.640625 1279.398438 982.628906 1285.589844 996.558594 "/>
<path fill-rule="evenodd" fill="rgb(83.984375%, 11.009216%, 7.006836%)" fill-opacity="1" d="M 1326.730469 2253.683594 C 1332.25 2288.714844 1346.328125 2314.433594 1382.351562 2322.6875 C 1401.699219 2327.128906 1483.988281 2327.117188 1504.269531 2323.773438 C 1582.578125 2310.84375 1568.78125 2208.542969 1562.210938 2135.296875 C 1554.378906 2048.042969 1516.53125 2070.273438 1444.851562 2069.636719 C 1425.460938 2069.460938 1409.851562 2065.742188 1388.449219 2067.628906 C 1337.910156 2072.074219 1334.03125 2087.4375 1329.921875 2134.96875 C 1327.71875 2160.382812 1323.128906 2230.808594 1326.730469 2253.683594 "/>
<path fill-rule="evenodd" fill="rgb(11.009216%, 11.009216%, 11.009216%)" fill-opacity="1" d="M 1349.851562 1671.121094 C 1335.28125 1680.050781 1330.609375 1693.128906 1318.089844 1704.988281 C 1303.070312 1719.21875 1293.738281 1718.289062 1269.519531 1723.519531 C 1210.429688 1736.261719 1196.761719 1745.390625 1167.109375 1725.679688 C 1119.140625 1693.808594 1107.351562 1698.730469 1094.71875 1664.390625 C 1088.929688 1648.660156 1080.230469 1633.671875 1074.511719 1617.339844 C 1066.410156 1594.238281 1078.359375 1589.460938 1084.78125 1568.601562 L 941.605469 1531.648438 C 941.605469 1582.429688 933.632812 1568.320312 966.996094 1595.050781 C 975.769531 1602.078125 983.203125 1608.628906 992.160156 1615.648438 L 1118.578125 1721.390625 C 1127.101562 1728.03125 1135.359375 1737.539062 1143.78125 1742.089844 C 1155.179688 1748.25 1298.46875 1759.78125 1313.308594 1756.410156 C 1337.699219 1750.878906 1433.78125 1709.890625 1447.421875 1710.78125 C 1475.128906 1712.601562 1553.359375 1755.050781 1585.589844 1757.558594 C 1606.269531 1759.171875 1738.230469 1748.269531 1750.601562 1740.078125 L 1866.210938 1644.441406 C 1873.128906 1639.011719 1870.640625 1640.238281 1877.269531 1634.46875 C 1883.089844 1629.410156 1885.28125 1628.691406 1891.121094 1623.648438 C 1963.050781 1561.570312 1950.578125 1589.199219 1950.410156 1531.550781 L 1807.339844 1568.050781 C 1816.371094 1608.300781 1836.960938 1578.328125 1793.789062 1674.070312 C 1785.550781 1692.339844 1715.21875 1733.640625 1708.351562 1736.390625 C 1698.21875 1740.441406 1603.140625 1722.300781 1588.28125 1715.910156 C 1577.460938 1711.25 1557.851562 1688.039062 1551 1679.308594 C 1535.050781 1658.980469 1547.828125 1653.898438 1554.238281 1627.5 C 1525.558594 1631.550781 1468.058594 1650.558594 1445.121094 1650.128906 C 1420.109375 1649.660156 1367.949219 1631.710938 1338.078125 1627.621094 L 1349.851562 1671.121094 "/>
<path fill-rule="evenodd" fill="rgb(3.999329%, 3.999329%, 3.999329%)" fill-opacity="1" d="M 1216.089844 1430.511719 C 1217.398438 1394.039062 1239.078125 1275.269531 1254.691406 1254.828125 C 1267.910156 1261.980469 1437.039062 1390.929688 1443.488281 1398.839844 C 1461.109375 1390.988281 1477.679688 1375.25 1493.371094 1363.140625 C 1519.371094 1343.070312 1626.429688 1259.390625 1638.140625 1254.949219 C 1655.179688 1282.75 1675.21875 1393.441406 1675.980469 1430.511719 C 1674.53125 1434.5 1522 1540.199219 1505.519531 1551.148438 C 1488.179688 1562.660156 1463.320312 1578.558594 1448.550781 1591.410156 C 1436.890625 1587.359375 1241.480469 1453.699219 1216.089844 1430.511719 Z M 1332.789062 952.941406 C 1388.378906 947.261719 1505.871094 944.429688 1559.128906 953.511719 L 1617.429688 1251.019531 C 1605.628906 1263.648438 1456.789062 1377.230469 1444.660156 1381.578125 C 1430.71875 1373.578125 1416.519531 1360.800781 1402.238281 1349.78125 C 1387.519531 1338.421875 1374.488281 1329.121094 1360.101562 1318.050781 C 1341.121094 1303.429688 1293.210938 1263.140625 1275.351562 1255.070312 Z M 1613.511719 1150.878906 C 1617.441406 1157.449219 1630.238281 1209.050781 1634.191406 1223.699219 C 1638.539062 1239.78125 1640.078125 1238.101562 1631.101562 1244.519531 C 1624.949219 1238.96875 1629.640625 1250 1624.898438 1236.050781 C 1624.488281 1234.859375 1623.238281 1226.449219 1622.851562 1224.308594 L 1609.738281 1162.859375 C 1608.320312 1145.089844 1611.03125 1153.210938 1613.511719 1150.878906 Z M 1261.730469 1244.78125 C 1250.601562 1237.25 1253.820312 1237.460938 1258.109375 1223.171875 C 1260.75 1214.378906 1262.761719 1207.398438 1265.078125 1198.308594 C 1268.378906 1185.410156 1273.738281 1159.949219 1279.320312 1150.238281 C 1281.308594 1153.308594 1285.511719 1141.039062 1279.859375 1170.929688 L 1267.929688 1232.039062 C 1265.480469 1241.140625 1265.660156 1239.621094 1261.730469 1244.78125 Z M 1575.140625 964.410156 L 1568.859375 951.199219 C 1563.730469 941.890625 1570.910156 946.46875 1560.019531 942.671875 L 1448.171875 937.960938 C 1424.671875 937.738281 1397.980469 939.429688 1374.421875 940.488281 C 1321.53125 942.878906 1329.171875 936.058594 1319.191406 961.121094 C 1318.910156 961.800781 1318.539062 963.070312 1318.011719 963.941406 C 1309.460938 958.890625 1285.738281 935.308594 1278.988281 927.78125 C 1265.859375 913.109375 1272.058594 884.238281 1272.339844 860.621094 C 1272.941406 811.140625 1275.238281 762.441406 1275.550781 712.859375 C 1276.789062 515.738281 1252.960938 543.308594 1402.429688 537.890625 C 1450.660156 536.140625 1498.589844 537.828125 1546.671875 539.261719 C 1619.671875 541.429688 1617.449219 547.421875 1615.640625 621.398438 C 1613.199219 720.71875 1622.78125 823.019531 1620.648438 921.578125 Z M 1285.589844 996.558594 L 1284.519531 996.929688 L 1282.199219 1025.980469 L 1272.53125 1030.539062 L 1272.269531 1032.609375 C 1280.308594 1042.289062 1279.640625 1032.78125 1281.261719 1050.230469 L 1276.878906 1125.671875 C 1256.128906 1127.039062 1008.21875 966.660156 983.9375 963.921875 L 982.675781 965.640625 C 986.789062 971.148438 1250.628906 1126.089844 1272.378906 1135.058594 C 1271.730469 1160.03125 1222.359375 1334.300781 1212.410156 1362.820312 C 1199.289062 1360.429688 1180.96875 1342.03125 1169.75 1332.558594 C 1154.859375 1319.988281 1142.179688 1309.628906 1126.789062 1298.050781 C 1113.328125 1287.929688 1099.480469 1275.308594 1086.308594 1264.699219 C 1071.878906 1253.070312 1055.691406 1237.519531 1040.121094 1230.171875 L 1041.269531 1231.421875 C 1056.761719 1255.769531 1100.640625 1274.570312 1111.648438 1296.828125 C 1104.171875 1304.488281 1051.988281 1325.398438 1037.179688 1332.71875 C 981.371094 1360.328125 862.921875 1426.691406 837.589844 1471.738281 L 837.402344 1471.511719 C 845.761719 1466.761719 907.496094 1412.390625 967.941406 1375.929688 C 1010.199219 1350.429688 1070.519531 1321.578125 1121.019531 1302.449219 C 1150.5 1319.75 1195.570312 1365.808594 1213.25 1373.441406 L 1204.78125 1433.878906 C 1223.648438 1451.199219 1298.058594 1499.988281 1324.660156 1518.871094 C 1365.109375 1547.601562 1404.988281 1577.589844 1444.660156 1602.289062 C 1457.988281 1597.378906 1630.789062 1476.261719 1657.261719 1456.679688 C 1668.019531 1448.710938 1677.398438 1444.671875 1686.421875 1434.019531 L 1678.300781 1377.769531 C 1681.300781 1373.789062 1760.539062 1307.691406 1764.03125 1306.140625 C 1777.769531 1300.058594 1805.511719 1316.929688 1819.621094 1322.910156 C 1877.519531 1347.429688 2044.019531 1438.460938 2057.109375 1484.691406 C 2043.960938 1490 1985.238281 1508.761719 1976.78125 1516.339844 L 1979.390625 1518.371094 C 2010.460938 1511.921875 2046.710938 1498.449219 2066.769531 1483.890625 C 2051.980469 1442.621094 1912.839844 1361.808594 1860.039062 1335.378906 C 1845.621094 1328.160156 1786.78125 1303.980469 1780.539062 1296.828125 C 1787.578125 1276.351562 1857.398438 1239.390625 1872.308594 1213.679688 L 1873.820312 1212.199219 C 1847.121094 1224.441406 1700.449219 1357.949219 1679.941406 1362.878906 C 1671.609375 1343.410156 1618.550781 1147.699219 1620.558594 1131.699219 C 1600.160156 1130.21875 1618.910156 1133.488281 1612.511719 1123.738281 C 1619.398438 1098.230469 1605.289062 1062.929688 1612.609375 1039.488281 L 1665.78125 1010.28125 C 1656.96875 1012.421875 1659.261719 1014.070312 1659.261719 1004.878906 C 1655.53125 1011.191406 1621.960938 1027.570312 1610.960938 1028.25 C 1605.390625 1000.359375 1612.871094 995.351562 1624.5 980.628906 C 1630.199219 973.429688 1644.441406 953.910156 1652.488281 952.058594 C 1643.019531 952.058594 1644.578125 954.5 1646.820312 945.550781 C 1634.640625 966.828125 1602.828125 981.441406 1601.449219 1011.609375 C 1599.910156 1045.160156 1607 1085.929688 1606.621094 1121.109375 C 1600.648438 1115.578125 1601.078125 1114.46875 1598.910156 1103.980469 L 1588.441406 1050.769531 C 1583.921875 1026.359375 1579.121094 1001.449219 1574.121094 976.699219 C 1574.710938 976.019531 1575.601562 975.171875 1576.011719 974.75 L 1586.898438 964.050781 C 1640.339844 911.179688 1627.609375 929.441406 1627.359375 857.101562 C 1627.171875 802.230469 1624.539062 747.050781 1624.28125 691.761719 C 1623.449219 517.289062 1646.160156 530.210938 1448.171875 528.339844 C 1243.269531 526.410156 1268.339844 524.550781 1267.730469 691.878906 C 1267.53125 746.21875 1264.890625 802.25 1264.691406 857.101562 C 1264.589844 886.589844 1257.238281 916.441406 1273.550781 933.289062 C 1281.230469 941.21875 1306.359375 968.75 1318.058594 972.75 C 1314.488281 1001.019531 1298.691406 1090.691406 1289.441406 1112.78125 C 1279.679688 1097.640625 1290.378906 1028.519531 1290.390625 1004.851562 C 1287.519531 988.53125 1289.441406 998.980469 1285.589844 996.558594 "/>
<path fill-rule="evenodd" fill="rgb(83.984375%, 11.009216%, 7.006836%)" fill-opacity="1" d="M 1448.171875 2484.4375 C 1537.628906 2484.464844 1548.121094 2493.839844 1554.480469 2440.515625 C 1559.199219 2400.988281 1564.519531 2344.515625 1563.578125 2303.660156 C 1520.980469 2339.609375 1525.679688 2338.382812 1444.660156 2338.195312 C 1382.988281 2338.054688 1364.289062 2340.945312 1328.859375 2303.804688 C 1326.449219 2341.613281 1333.449219 2406.066406 1338.261719 2444.9375 C 1341.910156 2474.492188 1343.460938 2482.0625 1375.121094 2484.269531 C 1397.640625 2485.835938 1425.121094 2484.429688 1448.171875 2484.4375 "/>
<path fill-rule="evenodd" fill="rgb(99.021912%, 99.021912%, 99.021912%)" fill-opacity="1" d="M 1652.488281 952.058594 C 1644.441406 953.910156 1630.199219 973.429688 1624.5 980.628906 C 1612.871094 995.351562 1605.390625 1000.359375 1610.960938 1028.25 C 1621.960938 1027.570312 1655.53125 1011.191406 1659.261719 1004.878906 C 1683.910156 995.558594 1869.890625 898.378906 1884.910156 885.238281 C 1881.140625 873.75 1886.730469 882.230469 1876.039062 872.390625 C 1839 838.28125 1717.128906 769.390625 1665.519531 767.980469 C 1668.339844 802.019531 1668.691406 837.140625 1670.410156 871.148438 C 1673.378906 929.871094 1677.660156 914.109375 1652.488281 952.058594 "/>
<path fill-rule="evenodd" fill="rgb(99.021912%, 99.021912%, 99.021912%)" fill-opacity="1" d="M 1272.53125 1030.539062 L 1282.199219 1025.980469 L 1284.519531 996.929688 C 1270.660156 987.808594 1256.78125 970.011719 1246.441406 956.808594 C 1233.460938 940.21875 1219.640625 935.011719 1219.960938 910 C 1220.488281 866.820312 1222.679688 810.859375 1226.511719 768.429688 C 1193.230469 767.53125 1126.289062 800.738281 1102.75 814.238281 C 1070.699219 832.621094 1054.699219 844.378906 1026.609375 864.75 C 1023.519531 867 1015.460938 872.828125 1014.539062 873.75 C 1005.789062 882.558594 1011.210938 872.390625 1007.191406 885.238281 C 1035.011719 910.78125 1254.378906 1010.21875 1272.53125 1030.539062 "/>
<path fill-rule="evenodd" fill="rgb(84.959412%, 23.997498%, 7.006836%)" fill-opacity="1" d="M 944.507812 1628.980469 L 1064.851562 1736.449219 C 1103.339844 1773.410156 1105.78125 1787.191406 1149.078125 1789.449219 C 1201.460938 1792.191406 1270.589844 1805.039062 1316.429688 1787.820312 C 1334.988281 1780.839844 1438.511719 1741.070312 1447.539062 1741.71875 C 1460.71875 1742.671875 1560.148438 1782.210938 1581.191406 1790.058594 C 1620.660156 1804.789062 1700.828125 1791.621094 1747.328125 1789.238281 C 1786.5 1787.230469 1782.359375 1776.191406 1806.039062 1756.730469 C 1823.238281 1742.609375 1836.609375 1727.378906 1853.980469 1713.148438 C 1864.199219 1704.789062 1867.398438 1700.210938 1877.289062 1690.800781 L 1947.878906 1628.171875 L 1943.460938 1597.171875 C 1911.140625 1616.609375 1765.851562 1751.621094 1746.390625 1756.71875 C 1735.609375 1759.550781 1592.289062 1771.089844 1582.539062 1770.019531 C 1549.390625 1766.390625 1483.910156 1729.28125 1450.230469 1724.648438 C 1430.121094 1721.878906 1344.820312 1761.949219 1317.460938 1768.460938 C 1303.828125 1771.699219 1168.03125 1761.121094 1149.460938 1757.421875 C 1126.480469 1752.839844 975.394531 1611.238281 947.347656 1597.511719 L 944.507812 1628.980469 "/>
<path fill-rule="evenodd" fill="rgb(99.021912%, 99.021912%, 99.021912%)" fill-opacity="1" d="M 1778.960938 2081.324219 C 1768.539062 2126.808594 1709.710938 2246.984375 1683.101562 2295.164062 C 1672.578125 2314.230469 1648 2345.707031 1644.351562 2360.285156 C 1663.148438 2358.152344 1671.539062 2346.265625 1681.859375 2336.113281 C 1730.371094 2288.410156 1763.109375 2222.296875 1796.089844 2161.957031 C 1804.710938 2146.175781 1831.449219 2101.765625 1834.929688 2089.078125 C 1840.75 2067.84375 1839.578125 1898.609375 1839.828125 1862.953125 C 1840.019531 1834.691406 1865.21875 1808.449219 1879.78125 1788.25 C 1891.570312 1771.910156 1914.171875 1732.011719 1928.558594 1723.339844 C 1931.011719 1704.160156 1960.140625 1689.261719 1951.21875 1671.390625 C 1935.878906 1675.53125 1864.859375 1756.351562 1840.011719 1780.128906 C 1826.308594 1793.238281 1815.03125 1800.589844 1812.230469 1827.390625 C 1808.460938 1863.519531 1790.578125 2066.738281 1778.960938 2081.324219 "/>
<path fill-rule="evenodd" fill="rgb(99.021912%, 99.021912%, 99.021912%)" fill-opacity="1" d="M 936.679688 1684.03125 C 953.207031 1697.550781 976.398438 1735.828125 989.46875 1755.539062 C 1045.179688 1839.585938 1052.058594 1821.328125 1052.328125 1880.773438 C 1052.421875 1899.277344 1054.078125 1917.824219 1054.25 1937.070312 C 1054.601562 1978.035156 1055.480469 2019.539062 1055.378906 2060.34375 C 1055.269531 2102.0625 1072.320312 2117.425781 1088.738281 2148.761719 C 1102.121094 2174.285156 1117.949219 2202.867188 1132.589844 2228.042969 C 1156.140625 2268.574219 1207.261719 2355.257812 1248.300781 2359.859375 L 1242.511719 2344.113281 C 1234.199219 2340.128906 1221.820312 2316.582031 1217.210938 2308.816406 C 1209.820312 2296.371094 1203.078125 2284.703125 1195.539062 2270.597656 C 1181.300781 2243.945312 1168.421875 2216.3125 1155.730469 2187.339844 C 1143.359375 2159.085938 1131.851562 2131.210938 1119.339844 2100.574219 C 1098.390625 2049.230469 1086.328125 1898.148438 1080.21875 1832.738281 C 1077.839844 1807.140625 1075.960938 1805.648438 1062.601562 1791.488281 C 1046.300781 1774.210938 955.578125 1674.78125 940.507812 1670.898438 L 936.679688 1684.03125 "/>
<path fill-rule="evenodd" fill="rgb(97.068787%, 98.046875%, 48.997498%)" fill-opacity="1" d="M 1095.96875 1573.421875 C 1086.339844 1611.769531 1074.578125 1582.859375 1100.570312 1647.789062 C 1116.539062 1687.710938 1117.511719 1679.96875 1150.171875 1700.371094 C 1177.878906 1717.679688 1180.191406 1729.058594 1217.761719 1721.101562 C 1296.050781 1704.5 1293.390625 1716.519531 1326.101562 1677.699219 C 1337.480469 1664.199219 1337.019531 1663.628906 1330.070312 1643.621094 C 1324.109375 1626.46875 1325.539062 1624.121094 1304.808594 1619.488281 C 1257.328125 1608.898438 1123.078125 1573.851562 1095.96875 1573.421875 "/>
<path fill-rule="evenodd" fill="rgb(97.068787%, 98.046875%, 48.997498%)" fill-opacity="1" d="M 1792.921875 1573.289062 C 1768.539062 1575.421875 1736.058594 1585.75 1710.988281 1591.378906 L 1587.839844 1619.371094 C 1566.289062 1623.941406 1569.320312 1623.75 1562.140625 1643.070312 C 1555.148438 1661.859375 1554.980469 1666.230469 1566.019531 1678.488281 C 1601.539062 1717.980469 1601.789062 1705.699219 1674.980469 1721.25 C 1708.289062 1728.320312 1701.390625 1726.289062 1744.828125 1699.011719 C 1778.839844 1677.660156 1774.929688 1686.921875 1791.730469 1647.25 C 1805.078125 1615.730469 1815.621094 1603.410156 1792.921875 1573.289062 "/>
<path fill-rule="evenodd" fill="rgb(99.021912%, 99.021912%, 99.021912%)" fill-opacity="1" d="M 2346.640625 1955.867188 C 2352.640625 1887.699219 2352.550781 1813.511719 2348.328125 1743.449219 C 2346.128906 1706.78125 2313.039062 1414.980469 2279.371094 1389.449219 C 2275.46875 1405.808594 2295.78125 1541.28125 2298.839844 1571.78125 C 2312.339844 1706.429688 2321.199219 1814.269531 2321.199219 1951.144531 C 2321.199219 1976.433594 2313.320312 2133.140625 2317.078125 2140.035156 C 2333.25 2125.632812 2343.710938 1989.109375 2346.640625 1955.867188 "/>
<path fill-rule="evenodd" fill="rgb(99.021912%, 99.021912%, 99.021912%)" fill-opacity="1" d="M 575.75 2139.894531 C 576.816406 2137.148438 570.855469 1969.730469 570.855469 1947.628906 C 570.859375 1800.769531 584.859375 1622.949219 604.257812 1476.609375 L 613.210938 1411.738281 C 613.542969 1408.671875 613.859375 1402.230469 613.53125 1399.269531 C 612.628906 1391.21875 613.199219 1394.410156 610.929688 1390.578125 C 601.34375 1400.808594 599.160156 1418.628906 595.246094 1432.191406 C 548.914062 1592.710938 531.09375 1794.601562 545.710938 1959.039062 C 548.074219 1985.617188 558.4375 2129.570312 575.75 2139.894531 "/>
<path fill-rule="evenodd" fill="rgb(99.021912%, 99.021912%, 99.021912%)" fill-opacity="1" d="M 795.523438 1214.628906 C 742.546875 1223.25 643.269531 1296.640625 632.941406 1328.488281 C 642.863281 1336.460938 762.933594 1352.851562 783.066406 1353.058594 L 795.523438 1214.628906 "/>
<path fill-rule="evenodd" fill="rgb(99.021912%, 99.021912%, 99.021912%)" fill-opacity="1" d="M 2108.441406 1353.378906 C 2129.5 1352.46875 2249.941406 1336.378906 2259.128906 1328.488281 C 2247.398438 1296.300781 2150.820312 1224.46875 2096.660156 1214.628906 L 2108.441406 1353.378906 "/>
<path fill-rule="evenodd" fill="rgb(2.999878%, 2.999878%, 2.999878%)" fill-opacity="1" d="M 1920.378906 1322.820312 C 1940.980469 1329.789062 1954.140625 1335.191406 1978.820312 1331.25 C 1997.75 1328.230469 2008.140625 1320.949219 2021.988281 1310.960938 C 2027.851562 1306.730469 2021.328125 1310.480469 2029.710938 1305.789062 C 2020.320312 1323.050781 2006.710938 1336.980469 1982.71875 1342.691406 C 1958.171875 1348.550781 1932.96875 1338.878906 1920.378906 1322.820312 Z M 1953.96875 1182.359375 C 1993.941406 1176.539062 2031.148438 1205.671875 2036.109375 1240.679688 C 2042.078125 1282.839844 2009.628906 1314.328125 1974.449219 1319.300781 C 1878.578125 1332.871094 1858.691406 1196.238281 1953.96875 1182.359375 Z M 1873.820312 1212.199219 L 1872.308594 1213.679688 L 1886.261719 1211.441406 C 1882.960938 1243.449219 1868.699219 1286.78125 1911.640625 1329.371094 C 1942.441406 1359.898438 1990.101562 1362.109375 2022.230469 1332.648438 C 2079.328125 1280.300781 2059.21875 1149.488281 1961.738281 1152.011719 L 1961.800781 1141.609375 L 1962.78125 1140.550781 C 1949.820312 1142.441406 1895.679688 1191.171875 1881.601562 1202.828125 C 1870.339844 1212.160156 1875.191406 1202.648438 1873.820312 1212.199219 "/>
<path fill-rule="evenodd" fill="rgb(2.999878%, 2.999878%, 2.999878%)" fill-opacity="1" d="M 971.8125 1322.960938 C 935.828125 1360.351562 881.621094 1344.820312 862.652344 1306.570312 C 900.84375 1323.238281 890.03125 1344.570312 971.8125 1322.960938 Z M 919.378906 1182.160156 C 1012.589844 1169.058594 1034.101562 1306.78125 938.238281 1319.421875 C 845.328125 1331.671875 820.488281 1196.070312 919.378906 1182.160156 Z M 1041.269531 1231.421875 L 1040.121094 1230.171875 C 1038.660156 1223.808594 939.839844 1142.898438 929.410156 1140.738281 L 931.03125 1142.050781 L 930.652344 1151.730469 C 843.722656 1153.539062 800.40625 1260.910156 871.46875 1331.800781 C 920.574219 1380.789062 991.289062 1345.53125 1008.378906 1278.851562 C 1016.75 1246.210938 1008.011719 1240.171875 1005.738281 1212.488281 C 1028.160156 1214.28125 1021.480469 1227.308594 1041.269531 1231.421875 "/>
<path fill-rule="evenodd" fill="rgb(4.998779%, 4.998779%, 2.999878%)" fill-opacity="1" d="M 1330.339844 610.570312 L 1561.828125 608.929688 L 1558.960938 884.089844 C 1521.128906 882.609375 1481.648438 878.621094 1444.648438 878.839844 C 1416.941406 879 1355.628906 887.039062 1333.28125 881.851562 Z M 1325.140625 892.171875 C 1357.621094 896.089844 1409.089844 889.039062 1444.648438 889.039062 C 1475.578125 889.050781 1542.011719 896.460938 1566.960938 891.578125 C 1571.011719 865.550781 1573.320312 618.671875 1568.878906 603.191406 L 1543.300781 599.53125 C 1532.769531 599.53125 1522.039062 599.71875 1511.488281 599.878906 C 1471.949219 600.46875 1338.351562 598.238281 1322.859375 601.53125 C 1318.429688 627.949219 1320.789062 867.691406 1325.140625 892.171875 "/>
<path fill-rule="evenodd" fill="rgb(11.009216%, 11.009216%, 11.009216%)" fill-opacity="1" d="M 2156.660156 2103.640625 C 2153.949219 2134.566406 2150.53125 2202.507812 2155.078125 2231.523438 L 2227.609375 2228.738281 L 2224 2097.273438 C 2207.738281 2093.164062 2174.480469 2100.425781 2156.660156 2103.640625 "/>
<path fill-rule="evenodd" fill="rgb(96.09375%, 86.914062%, 35.009766%)" fill-opacity="1" d="M 886.800781 1258.128906 C 879.902344 1230.480469 900.6875 1210.441406 921.136719 1205.699219 C 948.574219 1199.328125 975.625 1215.21875 980.574219 1237.519531 C 993.5625 1296.011719 900.1875 1311.75 886.800781 1258.128906 Z M 919.378906 1182.160156 C 820.488281 1196.070312 845.328125 1331.671875 938.238281 1319.421875 C 1034.101562 1306.78125 1012.589844 1169.058594 919.378906 1182.160156 "/>
<path fill-rule="evenodd" fill="rgb(11.009216%, 11.009216%, 11.009216%)" fill-opacity="1" d="M 664.535156 2228.863281 L 737.046875 2231.347656 C 741.871094 2196.910156 737.285156 2140.445312 735.605469 2103.066406 L 667.96875 2096.402344 L 664.535156 2228.863281 "/>
<path fill-rule="evenodd" fill="rgb(96.09375%, 86.914062%, 35.009766%)" fill-opacity="1" d="M 1910.289062 1251.101562 C 1906.160156 1193.289062 2002.308594 1187.621094 2006.609375 1244.679688 C 2011.03125 1303.261719 1914.160156 1305.289062 1910.289062 1251.101562 Z M 1953.96875 1182.359375 C 1858.691406 1196.238281 1878.578125 1332.871094 1974.449219 1319.300781 C 2009.628906 1314.328125 2042.078125 1282.839844 2036.109375 1240.679688 C 2031.148438 1205.671875 1993.941406 1176.539062 1953.96875 1182.359375 "/>
<path fill-rule="evenodd" fill="rgb(11.009216%, 11.009216%, 11.009216%)" fill-opacity="1" d="M 2159.210938 1933.867188 L 2158.75 2051.007812 L 2226.210938 2049.171875 L 2226.621094 1925.355469 L 2159.210938 1933.867188 "/>
<path fill-rule="evenodd" fill="rgb(11.009216%, 11.009216%, 11.009216%)" fill-opacity="1" d="M 669.140625 1709.480469 L 734.597656 1709.378906 C 739.902344 1685.5 740.238281 1624 738.8125 1597.941406 L 667.390625 1596.601562 C 665.949219 1619.070312 663.359375 1691.941406 669.140625 1709.480469 "/>
<path fill-rule="evenodd" fill="rgb(11.009216%, 11.009216%, 11.009216%)" fill-opacity="1" d="M 665.730469 2047.71875 L 733.445312 2052.421875 L 733.308594 1933.90625 L 667.304688 1925.59375 L 665.730469 2047.71875 "/>
<path fill-rule="evenodd" fill="rgb(11.009216%, 11.009216%, 11.009216%)" fill-opacity="1" d="M 2155.789062 1710.199219 L 2225.191406 1709.640625 L 2224.570312 1596.75 L 2152.289062 1597.261719 L 2155.789062 1710.199219 "/>
<path fill-rule="evenodd" fill="rgb(11.009216%, 11.009216%, 11.009216%)" fill-opacity="1" d="M 665.828125 1875.171875 L 734.402344 1876.761719 L 736.589844 1762.769531 L 666.140625 1761.960938 L 665.828125 1875.171875 "/>
<path fill-rule="evenodd" fill="rgb(11.009216%, 11.009216%, 11.009216%)" fill-opacity="1" d="M 2157.289062 1875.75 L 2225.398438 1875.554688 L 2226.238281 1762.488281 L 2157.449219 1762.839844 L 2157.289062 1875.75 "/>
<path fill-rule="evenodd" fill="rgb(11.009216%, 11.009216%, 11.009216%)" fill-opacity="1" d="M 2219.570312 1437.128906 C 2204.308594 1434.648438 2188.449219 1434.78125 2173.019531 1436.339844 C 2142.890625 1439.398438 2157.148438 1447.519531 2153.710938 1547.929688 L 2221.300781 1548.148438 C 2220.050781 1520.640625 2226.378906 1457.710938 2219.570312 1437.128906 "/>
<path fill-rule="evenodd" fill="rgb(99.021912%, 99.021912%, 99.021912%)" fill-opacity="1" d="M 1723.691406 2304.851562 C 1740.769531 2304.75 1765.21875 2299.542969 1783.308594 2297.058594 C 1816.328125 2292.519531 1807.460938 2292.410156 1811.339844 2258.75 C 1815.339844 2224.085938 1826.609375 2166.15625 1825.339844 2134.132812 C 1810.328125 2140.558594 1803.308594 2160.953125 1795.558594 2175.324219 C 1781.960938 2200.566406 1723.890625 2296.335938 1723.691406 2304.851562 "/>
<path fill-rule="evenodd" fill="rgb(11.009216%, 11.009216%, 11.009216%)" fill-opacity="1" d="M 738.066406 1439.371094 L 669.296875 1434.429688 L 672.085938 1547.621094 L 737.492188 1547.75 L 738.066406 1439.371094 "/>
<path fill-rule="evenodd" fill="rgb(99.021912%, 99.021912%, 99.021912%)" fill-opacity="1" d="M 1168.671875 2304.660156 C 1168.640625 2304.242188 1081.289062 2139.652344 1068.25 2134.855469 C 1063.050781 2146.363281 1077.851562 2235.609375 1080.300781 2255.890625 C 1084.371094 2289.722656 1076.050781 2292.285156 1109.480469 2297.160156 C 1127.058594 2299.726562 1151.839844 2304.777344 1168.671875 2304.660156 "/>
<path fill-rule="evenodd" fill="rgb(0%, 0%, 0%)" fill-opacity="1" d="M 886.800781 1258.128906 C 900.1875 1311.75 993.5625 1296.011719 980.574219 1237.519531 C 975.625 1215.21875 948.574219 1199.328125 921.136719 1205.699219 C 900.6875 1210.441406 879.902344 1230.480469 886.800781 1258.128906 "/>
<path fill-rule="evenodd" fill="rgb(0%, 0%, 0%)" fill-opacity="1" d="M 1910.289062 1251.101562 C 1914.160156 1305.289062 2011.03125 1303.261719 2006.609375 1244.679688 C 2002.308594 1187.621094 1906.160156 1193.289062 1910.289062 1251.101562 "/>
<path fill-rule="evenodd" fill="rgb(17.993164%, 17.993164%, 17.993164%)" fill-opacity="1" d="M 1534.761719 1787.871094 C 1546.148438 1787.691406 1570.589844 1804.039062 1585.480469 1810.429688 C 1605.390625 1818.988281 1634 1812.910156 1655.871094 1812.21875 C 1673.089844 1811.679688 1795.929688 1806.351562 1802.929688 1803.148438 C 1811.199219 1799.371094 1815.378906 1790.488281 1822.609375 1783.789062 C 1852.871094 1755.699219 1841.398438 1763.160156 1859.859375 1743.671875 C 1866.371094 1736.808594 1873.320312 1731.761719 1879.960938 1725.121094 C 1892.878906 1712.238281 1901.761719 1696.429688 1915.921875 1683.640625 C 1930.460938 1670.5 1945.808594 1656.53125 1950.691406 1642.558594 C 1937.238281 1648.089844 1851.578125 1731.621094 1829.480469 1751.988281 C 1756.320312 1819.441406 1781.101562 1796.539062 1655.800781 1806.179688 C 1557.828125 1813.710938 1596.660156 1797.460938 1534.761719 1787.871094 "/>
<path fill-rule="evenodd" fill="rgb(17.993164%, 17.993164%, 17.993164%)" fill-opacity="1" d="M 1325.859375 1798.621094 C 1298.128906 1803.820312 1301.648438 1810.75 1268.550781 1808.648438 L 1134.988281 1800.371094 C 1102.578125 1797.699219 1108.179688 1789.398438 1089.800781 1774.878906 C 1059.210938 1750.71875 957.273438 1650.691406 942.144531 1642.738281 C 942.910156 1659.371094 962.304688 1668.5 973.425781 1680.101562 L 1076.25 1791.859375 C 1092.128906 1810.269531 1089.949219 1804.230469 1131.628906 1807.050781 C 1155.738281 1808.679688 1284.519531 1818.078125 1299.328125 1813.691406 C 1299.339844 1813.679688 1311.71875 1808.5 1312.238281 1808.238281 L 1325.859375 1798.621094 "/>
<path fill-rule="evenodd" fill="rgb(1.000977%, 1.000977%, 1.000977%)" fill-opacity="1" d="M 667.304688 1925.59375 L 733.308594 1933.90625 L 733.445312 2052.421875 L 665.730469 2047.71875 Z M 658.496094 2058.167969 C 679.300781 2060.363281 724.136719 2065.414062 742.070312 2057.789062 C 744.296875 2041.292969 745.0625 1938.941406 741.089844 1927.011719 C 725.351562 1919.628906 675.859375 1914.578125 655.945312 1915.476562 C 654.566406 1941.566406 651.105469 2039.058594 658.496094 2058.167969 "/>
<path fill-rule="evenodd" fill="rgb(2.999878%, 2.999878%, 2.999878%)" fill-opacity="1" d="M 2157.449219 1762.839844 L 2226.238281 1762.488281 L 2225.398438 1875.554688 L 2157.289062 1875.75 Z M 2145.808594 1782.289062 C 2145.859375 1806.648438 2143.988281 1866.375 2150.148438 1885.730469 L 2233.769531 1886.003906 C 2240.359375 1857.0625 2238.601562 1784.128906 2234.910156 1752.789062 C 2215.050781 1750.628906 2195.328125 1752.210938 2176.21875 1751.921875 C 2140.609375 1751.390625 2145.710938 1748.050781 2145.808594 1782.289062 "/>
<path fill-rule="evenodd" fill="rgb(1.997375%, 1.997375%, 1.997375%)" fill-opacity="1" d="M 2226.621094 1925.355469 L 2226.210938 2049.171875 L 2158.75 2051.007812 L 2159.210938 1933.867188 Z M 2151.738281 1926.4375 C 2145.101562 1942.226562 2149.101562 2013.148438 2148.738281 2035.859375 C 2148.269531 2066.042969 2148.628906 2062.101562 2179.769531 2061.058594 C 2198.140625 2060.445312 2215.851562 2060.609375 2233.929688 2057.871094 C 2240.371094 2040.003906 2237.441406 1940.804688 2236.199219 1915.855469 C 2219 1914.214844 2165.800781 1920.53125 2151.738281 1926.4375 "/>
<path fill-rule="evenodd" fill="rgb(1.000977%, 1.000977%, 1.000977%)" fill-opacity="1" d="M 667.96875 2096.402344 L 735.605469 2103.066406 C 737.285156 2140.445312 741.871094 2196.910156 737.046875 2231.347656 L 664.535156 2228.863281 Z M 656.21875 2236.09375 C 671.941406 2241.476562 730.378906 2243.582031 746.640625 2238.601562 L 746.425781 2099.734375 C 733.402344 2090.375 721.351562 2091.546875 704.238281 2089.367188 C 689.871094 2087.53125 674.675781 2084.636719 659.996094 2084.515625 C 656.695312 2107.390625 651.804688 2216.363281 656.21875 2236.09375 "/>
<path fill-rule="evenodd" fill="rgb(1.000977%, 1.000977%, 1.000977%)" fill-opacity="1" d="M 666.140625 1761.960938 L 736.589844 1762.769531 L 734.402344 1876.761719 L 665.828125 1875.171875 Z M 658.703125 1885.554688 L 742.28125 1886.019531 C 747.546875 1866.367188 749.808594 1769.75 743.472656 1752.390625 L 658.476562 1752.148438 C 652.382812 1768.121094 652.3125 1870.492188 658.703125 1885.554688 "/>
<path fill-rule="evenodd" fill="rgb(1.000977%, 1.000977%, 1.000977%)" fill-opacity="1" d="M 2156.660156 2103.640625 C 2174.480469 2100.425781 2207.738281 2093.164062 2224 2097.273438 L 2227.609375 2228.738281 L 2155.078125 2231.523438 C 2150.53125 2202.507812 2153.949219 2134.566406 2156.660156 2103.640625 Z M 2145.511719 2239.230469 C 2161.808594 2242.761719 2221.210938 2241.375 2236.039062 2236.09375 C 2240.148438 2217.300781 2235.449219 2106.953125 2232.128906 2085.03125 C 2215.78125 2084.140625 2160.199219 2091.253906 2145.71875 2097.535156 L 2145.511719 2239.230469 "/>
<path fill-rule="evenodd" fill="rgb(1.000977%, 1.000977%, 1.000977%)" fill-opacity="1" d="M 2152.289062 1597.261719 L 2224.570312 1596.75 L 2225.191406 1709.640625 L 2155.789062 1710.199219 Z M 2144.261719 1588.808594 L 2145.738281 1716.789062 C 2155.730469 1720.128906 2227.589844 1722.839844 2233.308594 1715.589844 C 2238.101562 1701.710938 2238.308594 1603.320312 2232.660156 1588.808594 C 2219.898438 1584.230469 2156.671875 1584.410156 2144.261719 1588.808594 "/>
<path fill-rule="evenodd" fill="rgb(1.000977%, 1.000977%, 1.000977%)" fill-opacity="1" d="M 669.140625 1709.480469 C 663.359375 1691.941406 665.949219 1619.070312 667.390625 1596.601562 L 738.8125 1597.941406 C 740.238281 1624 739.902344 1685.5 734.597656 1709.378906 Z M 656.660156 1606.398438 C 656.660156 1639.671875 655.46875 1684.75 657.753906 1716.609375 C 685.472656 1722.378906 699.859375 1719.71875 730.753906 1719.601562 C 747.34375 1719.601562 746.492188 1718.261719 747.328125 1701.730469 C 748.402344 1680.390625 750.625 1598.609375 746.710938 1586.960938 L 674.25 1586.578125 C 657.179688 1586.578125 656.660156 1588.929688 656.660156 1606.398438 "/>
<path fill-rule="evenodd" fill="rgb(1.997375%, 1.997375%, 1.997375%)" fill-opacity="1" d="M 737.492188 1547.75 L 672.085938 1547.621094 L 669.296875 1434.429688 L 738.066406 1439.371094 Z M 661.789062 1554.828125 C 678.292969 1559.910156 729.117188 1558.71875 746.683594 1556.019531 C 750.15625 1532.300781 752.269531 1451.089844 745.605469 1433.21875 C 732.027344 1426.621094 679.511719 1423.960938 661.378906 1428.121094 L 661.789062 1554.828125 "/>
<path fill-rule="evenodd" fill="rgb(1.997375%, 1.997375%, 1.997375%)" fill-opacity="1" d="M 2219.570312 1437.128906 C 2226.378906 1457.710938 2220.050781 1520.640625 2221.300781 1548.148438 L 2153.710938 1547.929688 C 2157.148438 1447.519531 2142.890625 1439.398438 2173.019531 1436.339844 C 2188.449219 1434.78125 2204.308594 1434.648438 2219.570312 1437.128906 Z M 2146.148438 1431.859375 C 2141.960938 1449.058594 2142.558594 1537.378906 2145.511719 1556.511719 L 2228.800781 1557.191406 L 2232.398438 1428.738281 C 2215.441406 1423.828125 2163.5 1428 2146.148438 1431.859375 "/>
<path fill-rule="evenodd" fill="rgb(2.999878%, 2.999878%, 2.999878%)" fill-opacity="1" d="M 1382.5 1856.164062 C 1387.578125 1851.757812 1437.480469 1830 1444.859375 1829.71875 C 1453.78125 1829.378906 1501.980469 1849.773438 1509.171875 1855.007812 L 1507.988281 1866.96875 C 1491.898438 1873.03125 1463.738281 1850.464844 1444.679688 1850.523438 C 1425.300781 1850.578125 1402.320312 1872.347656 1384.339844 1867.542969 Z M 1377.398438 1880.71875 C 1397.230469 1877.570312 1433.328125 1858.945312 1447.941406 1859.769531 C 1469.429688 1860.976562 1497.261719 1886.015625 1516.691406 1877.398438 L 1519.921875 1847.746094 C 1504.359375 1843.132812 1456.160156 1819.140625 1445.019531 1819.390625 C 1437.210938 1819.578125 1380.691406 1844.316406 1371.441406 1850.253906 L 1377.398438 1880.71875 "/>
<path fill-rule="evenodd" fill="rgb(1.997375%, 1.997375%, 1.997375%)" fill-opacity="1" d="M 1381.851562 1930.039062 C 1454.511719 1900.359375 1428.621094 1897.128906 1491.359375 1922.363281 C 1508.320312 1929.183594 1513.171875 1928.308594 1504.460938 1944.867188 C 1483.78125 1941.199219 1461.339844 1924.316406 1441.800781 1926.847656 C 1428.730469 1928.535156 1402.210938 1942.476562 1385.679688 1945.578125 Z M 1379.96875 1955.425781 C 1399.160156 1951.761719 1433.699219 1933.574219 1447.789062 1934.363281 C 1462.738281 1935.195312 1491.75 1952.171875 1512.601562 1955.25 L 1519.230469 1926.519531 C 1509.210938 1918.550781 1456.96875 1895.308594 1444.941406 1895.738281 C 1434.839844 1896.097656 1380.960938 1920.058594 1371.761719 1926.859375 L 1379.96875 1955.425781 "/>
<path fill-rule="evenodd" fill="rgb(83.984375%, 11.009216%, 7.006836%)" fill-opacity="1" d="M 1444.660156 2014.519531 C 1433.808594 2021.132812 1425.429688 2026.621094 1414.378906 2033.472656 C 1402.460938 2040.859375 1394.578125 2043.785156 1386.828125 2055.183594 C 1410.101562 2053.699219 1426.25 2057.191406 1448.199219 2056.875 C 1469.140625 2056.570312 1483.429688 2054.027344 1505.410156 2055.019531 C 1499.921875 2047.554688 1499.890625 2047.660156 1490.960938 2041.847656 C 1484.160156 2037.410156 1481.410156 2036.160156 1475.78125 2032.617188 C 1465.71875 2026.289062 1456.621094 2018.28125 1444.660156 2014.519531 "/>
<path fill-rule="evenodd" fill="rgb(10.009766%, 10.009766%, 10.009766%)" fill-opacity="1" d="M 1382.5 1856.164062 L 1384.339844 1867.542969 C 1402.320312 1872.347656 1425.300781 1850.578125 1444.679688 1850.523438 C 1463.738281 1850.464844 1491.898438 1873.03125 1507.988281 1866.96875 L 1509.171875 1855.007812 C 1501.980469 1849.773438 1453.78125 1829.378906 1444.859375 1829.71875 C 1437.480469 1830 1387.578125 1851.757812 1382.5 1856.164062 "/>
<path fill-rule="evenodd" fill="rgb(10.009766%, 10.009766%, 10.009766%)" fill-opacity="1" d="M 1381.851562 1930.039062 L 1385.679688 1945.578125 C 1402.210938 1942.476562 1428.730469 1928.535156 1441.800781 1926.847656 C 1461.339844 1924.316406 1483.78125 1941.199219 1504.460938 1944.867188 C 1513.171875 1928.308594 1508.320312 1929.183594 1491.359375 1922.363281 C 1428.621094 1897.128906 1454.511719 1900.359375 1381.851562 1930.039062 "/>
<path fill-rule="evenodd" fill="rgb(86.914062%, 86.914062%, 86.914062%)" fill-opacity="1" d="M 1832.398438 2315.796875 C 1832.710938 2302.375 1838.078125 2208.179688 1831.621094 2193.152344 C 1823.121094 2204.050781 1821.738281 2243.007812 1820 2256.316406 C 1815.429688 2291.4375 1809.75 2305.601562 1832.398438 2315.796875 "/>
<path fill-rule="evenodd" fill="rgb(85.9375%, 85.9375%, 85.9375%)" fill-opacity="1" d="M 1060.328125 2314.449219 C 1085.589844 2313.308594 1071.828125 2253.515625 1068.039062 2222.066406 C 1063.589844 2185.132812 1066.148438 2197.078125 1057.140625 2192.839844 L 1060.328125 2314.449219 "/>
<path fill-rule="evenodd" fill="rgb(29.00238%, 29.00238%, 29.00238%)" fill-opacity="1" d="M 971.8125 1322.960938 C 890.03125 1344.570312 900.84375 1323.238281 862.652344 1306.570312 C 881.621094 1344.820312 935.828125 1360.351562 971.8125 1322.960938 "/>
<path fill-rule="evenodd" fill="rgb(28.001404%, 28.001404%, 28.001404%)" fill-opacity="1" d="M 1920.378906 1322.820312 C 1932.96875 1338.878906 1958.171875 1348.550781 1982.71875 1342.691406 C 2006.710938 1336.980469 2020.320312 1323.050781 2029.710938 1305.789062 C 2021.328125 1310.480469 2027.851562 1306.730469 2021.988281 1310.960938 C 2008.140625 1320.949219 1997.75 1328.230469 1978.820312 1331.25 C 1954.140625 1335.191406 1940.980469 1329.789062 1920.378906 1322.820312 "/>
<path fill-rule="evenodd" fill="rgb(96.09375%, 96.09375%, 96.09375%)" fill-opacity="1" d="M 1631.101562 1244.519531 C 1640.078125 1238.101562 1638.539062 1239.78125 1634.191406 1223.699219 C 1630.238281 1209.050781 1617.441406 1157.449219 1613.511719 1150.878906 C 1611.03125 1153.210938 1608.320312 1145.089844 1609.738281 1162.859375 L 1622.851562 1224.308594 C 1623.238281 1226.449219 1624.488281 1234.859375 1624.898438 1236.050781 C 1629.640625 1250 1624.949219 1238.96875 1631.101562 1244.519531 "/>
<path fill-rule="evenodd" fill="rgb(94.921875%, 94.921875%, 94.921875%)" fill-opacity="1" d="M 1261.730469 1244.78125 C 1265.660156 1239.621094 1265.480469 1241.140625 1267.929688 1232.039062 L 1279.859375 1170.929688 C 1285.511719 1141.039062 1281.308594 1153.308594 1279.320312 1150.238281 C 1273.738281 1159.949219 1268.378906 1185.410156 1265.078125 1198.308594 C 1262.761719 1207.398438 1260.75 1214.378906 1258.109375 1223.171875 C 1253.820312 1237.460938 1250.601562 1237.25 1261.730469 1244.78125 "/>
<path fill-rule="evenodd" fill="rgb(50.976562%, 50.976562%, 50.976562%)" fill-opacity="1" d="M 2263.851562 1354.660156 L 2260.789062 1339.269531 C 2249.019531 1338.359375 2252.921875 1336.671875 2243.210938 1343.109375 L 2257.261719 1340.960938 L 2263.851562 1354.660156 "/>
</svg>
